<svg width="46" height="46" viewBox="0 0 46 46" fill="none" xmlns="http://www.w3.org/2000/svg">
<rect x="1" y="0.5" width="43.625" height="45" rx="21.8125" fill="#1D1D1D" stroke="white"/>
<path d="M34.6454 33.3812C33.2468 33.3469 31.8814 33.3469 30.4828 33.3812C30.1831 33.3812 30.1165 33.3125 30.1165 33.0031C30.1165 30.4594 30.1165 27.8812 30.1165 25.3375C30.1165 24.7531 30.0832 24.1687 29.9167 23.6187C29.4172 21.8312 27.4191 21.1781 25.9872 22.3812C25.2213 23 24.9216 23.8594 24.9216 24.8906C24.9216 27.2969 24.9216 29.7031 24.9216 32.1094C24.9216 32.4187 24.8883 32.7281 24.9216 33.0719C24.9549 33.3469 24.8217 33.4156 24.5886 33.3812C23.1566 33.3812 21.758 33.3812 20.326 33.3812C20.0596 33.3812 19.993 33.3125 19.993 33.0375C20.0263 30.8719 20.0263 28.7062 20.0263 26.5062C20.0263 23.825 20.0263 21.1437 19.993 18.4969C19.993 18.1875 20.0596 18.1187 20.326 18.1187C21.758 18.1187 23.1566 18.1187 24.5886 18.1187C24.855 18.1187 24.9216 18.1875 24.9216 18.4625C24.9216 19.0125 24.9216 19.5625 24.9216 20.2156C25.0215 20.1125 25.0548 20.0781 25.0881 20.0437C26.3868 18.0844 28.2183 17.5344 30.3829 17.8781C32.8804 18.2906 34.4789 20.0781 34.8785 22.8281C34.9784 23.4812 35.0117 24.1344 35.0117 24.7875C35.0117 27.5375 35.0117 30.2531 35.0117 33.0031C35.0117 33.2781 34.9451 33.3812 34.6454 33.3812Z" fill="white"/>
<path d="M17.3289 25.75C17.3289 28.1562 17.3289 30.5625 17.3289 32.9687C17.3289 33.2781 17.2623 33.3812 16.9626 33.3812C15.564 33.3468 14.1654 33.3812 12.7667 33.3812C12.5003 33.3812 12.4337 33.3125 12.4337 33.0375C12.4337 28.1906 12.4337 23.3093 12.4337 18.4625C12.4337 18.2218 12.5003 18.1187 12.7667 18.1187C14.1987 18.1187 15.6306 18.1187 17.0625 18.1187C17.3622 18.1187 17.3955 18.2218 17.3955 18.4968C17.3289 20.9031 17.3289 23.3093 17.3289 25.75Z" fill="white"/>
<path d="M17.5621 14.1313C17.2291 15.5063 15.8638 16.2969 14.2986 16.0219C12.6336 15.7469 11.7012 14.0625 12.3006 12.4125C12.7002 11.3813 13.6659 10.7625 14.898 10.7969C16.7629 10.7625 17.995 12.3094 17.5621 14.1313Z" fill="white"/>
</svg>
