<svg width="235" height="169" viewBox="0 0 235 169" fill="none" xmlns="http://www.w3.org/2000/svg">
<rect width="235" height="169" fill="#FF8300"/>
<rect width="235" height="169" fill="#FF8300"/>
<path d="M72.2635 142.117C73.8846 142.117 74.9881 141.263 75.2566 139.808H74.1678C73.948 140.657 73.2498 141.16 72.2683 141.16C70.9744 141.16 70.1541 140.12 70.1541 138.475C70.1541 136.844 70.9842 135.794 72.2635 135.794C73.2205 135.794 73.9724 136.385 74.1678 137.288H75.2517C75.0662 135.818 73.8601 134.837 72.2635 134.837C70.2957 134.837 69.0359 136.243 69.0359 138.475C69.0359 140.721 70.2859 142.117 72.2635 142.117ZM79.323 142.098C80.7928 142.098 81.7596 141.087 81.7596 139.432C81.7596 137.781 80.7879 136.771 79.323 136.771C77.8582 136.771 76.8865 137.781 76.8865 139.432C76.8865 141.087 77.8533 142.098 79.323 142.098ZM79.323 141.229C78.4978 141.229 77.9607 140.574 77.9607 139.432C77.9607 138.294 78.4978 137.64 79.323 137.64C80.1482 137.64 80.6853 138.294 80.6853 139.432C80.6853 140.574 80.1531 141.229 79.323 141.229ZM83.575 142H84.6297V139.007C84.6297 138.211 85.1082 137.684 85.8504 137.684C86.5828 137.684 86.9441 138.108 86.9441 138.88V142H88.0037V138.675C88.0037 137.498 87.3543 136.775 86.2215 136.775C85.4305 136.775 84.8836 137.137 84.6053 137.723H84.5808V136.863H83.575V142ZM89.9314 138.318C89.9314 139.036 90.4002 139.52 91.3279 139.744L92.2459 139.969C92.783 140.105 92.9783 140.286 92.9783 140.613C92.9783 141.028 92.5877 141.292 91.9529 141.292C91.3084 141.292 90.9275 141.019 90.8445 140.525H89.7996C89.8826 141.468 90.6883 142.098 91.9041 142.098C93.1638 142.098 94.0379 141.453 94.0379 140.516C94.0379 139.759 93.6472 139.368 92.6121 139.119L91.7478 138.919C91.2156 138.787 90.9617 138.572 90.9617 138.255C90.9617 137.85 91.3426 137.571 91.9138 137.571C92.5047 137.571 92.8806 137.859 92.9295 138.323H93.9207C93.8865 137.41 93.0857 136.771 91.9431 136.771C90.742 136.771 89.9314 137.4 89.9314 138.318ZM100.262 136.863H99.2078V139.856C99.2078 140.657 98.7488 141.185 97.9871 141.185C97.2596 141.185 96.8885 140.765 96.8885 139.983V136.863H95.8338V140.188C95.8338 141.365 96.5174 142.093 97.6355 142.093C98.4217 142.093 98.9441 141.746 99.2273 141.131H99.2517V142H100.262V136.863ZM102.346 142H103.401V134.954H102.346V142ZM105.793 135.647V136.863H105.046V137.698H105.793V140.647C105.793 141.639 106.198 142.034 107.238 142.034C107.472 142.034 107.707 142.015 107.824 141.985V141.15C107.756 141.165 107.585 141.175 107.477 141.175C107.048 141.175 106.852 140.975 106.852 140.53V137.698H107.829V136.863H106.852V135.647H105.793ZM111.778 142.098C113.248 142.098 114.215 141.087 114.215 139.432C114.215 137.781 113.243 136.771 111.778 136.771C110.313 136.771 109.342 137.781 109.342 139.432C109.342 141.087 110.308 142.098 111.778 142.098ZM111.778 141.229C110.953 141.229 110.416 140.574 110.416 139.432C110.416 138.294 110.953 137.64 111.778 137.64C112.603 137.64 113.14 138.294 113.14 139.432C113.14 140.574 112.608 141.229 111.778 141.229ZM116.03 142H117.085V138.924C117.085 138.196 117.505 137.742 118.183 137.742C118.388 137.742 118.574 137.767 118.657 137.801V136.819C118.579 136.805 118.447 136.78 118.296 136.78C117.69 136.78 117.231 137.137 117.06 137.737H117.036V136.863H116.03V142ZM120.345 142H121.4V136.863H120.345V142ZM121.317 136.131L122.538 134.651H121.478L120.433 136.131H121.317ZM125.276 141.253C124.71 141.253 124.339 140.96 124.339 140.511C124.339 140.071 124.695 139.793 125.325 139.749L126.59 139.671V140.076C126.59 140.745 126.013 141.253 125.276 141.253ZM124.983 142.088C125.657 142.088 126.306 141.727 126.604 141.155H126.629V142H127.639V138.46C127.639 137.43 126.844 136.771 125.598 136.771C124.329 136.771 123.538 137.454 123.479 138.382H124.475C124.568 137.923 124.949 137.63 125.559 137.63C126.204 137.63 126.59 137.972 126.59 138.543V138.938L125.183 139.021C123.963 139.09 123.274 139.642 123.274 140.54C123.274 141.463 123.977 142.088 124.983 142.088ZM134.845 137.62C135.582 137.62 136.08 138.172 136.104 138.958H133.536C133.59 138.182 134.107 137.62 134.845 137.62ZM136.099 140.491C135.958 140.94 135.513 141.243 134.913 141.243C134.068 141.243 133.531 140.652 133.531 139.759V139.695H137.159V139.334C137.159 137.776 136.27 136.771 134.845 136.771C133.394 136.771 132.467 137.845 132.467 139.456C132.467 141.077 133.38 142.098 134.888 142.098C136.065 142.098 136.954 141.429 137.1 140.491H136.099ZM138.979 142H140.034V139.007C140.034 138.211 140.512 137.684 141.255 137.684C141.987 137.684 142.348 138.108 142.348 138.88V142H143.408V138.675C143.408 137.498 142.759 136.775 141.626 136.775C140.835 136.775 140.288 137.137 140.01 137.723H139.985V136.863H138.979V142ZM149.68 142V134.954H148.587V142H149.68ZM154.914 139.681H156.965V138.729H154.914V136.57H153.947V138.729H151.896V139.681H153.947V141.883H154.914V139.681ZM159.18 134.954V142H161.666C163.765 142 165.001 140.691 165.001 138.465C165.001 136.243 163.761 134.954 161.666 134.954H159.18ZM160.274 135.896H161.563C163.053 135.896 163.883 136.814 163.883 138.475C163.883 140.14 163.057 141.053 161.563 141.053H160.274V135.896Z" fill="white"/>
<g clip-path="url(#clip0_1183_457)">
<path d="M174.299 19H61V126.348H174.299V19Z" fill="#FF8300"/>
<path d="M116.149 38.8653L98.7933 56.2208L116.976 74.4032L118.728 76.0167L118.612 75.9126C125.292 81.9734 134.962 84.599 143.74 82.1296C158.875 77.8789 167.984 59.7312 161.42 45.2269C154.914 30.8498 135.389 24.9914 122.123 33.6257" stroke="white" stroke-width="5" stroke-miterlimit="10"/>
<path d="M119.116 73.7959L136.471 56.4405L118.289 38.2581L116.536 36.6446L116.652 36.7487C109.972 30.6821 100.303 28.0565 91.5238 30.5259C76.3891 34.7766 67.2806 52.9243 73.8445 67.4286C80.3506 81.8057 99.8748 87.6641 113.141 79.0297" stroke="white" stroke-width="5" stroke-miterlimit="10"/>
<path d="M80.7266 96.5644V107.009H79.4022V105.216C78.8412 105.899 78.2051 106.419 77.5053 106.76C76.8055 107.101 76.0364 107.281 75.2036 107.281C73.7231 107.281 72.4623 106.743 71.4156 105.673C70.3688 104.603 69.8483 103.296 69.8483 101.758C69.8483 100.254 70.3746 98.9645 71.4329 97.9003C72.4913 96.8305 73.7578 96.2984 75.2441 96.2984C76.1 96.2984 76.8749 96.4835 77.5747 96.8478C78.2687 97.2121 78.8759 97.7616 79.4022 98.4902V96.5702H80.7266V96.5644ZM75.3539 97.5881C74.6079 97.5881 73.9139 97.7731 73.2836 98.1375C72.6532 98.5076 72.1443 99.0223 71.7741 99.6874C71.3982 100.352 71.2132 101.058 71.2132 101.798C71.2132 102.533 71.404 103.238 71.7799 103.909C72.1558 104.58 72.6648 105.1 73.3009 105.476C73.9371 105.852 74.6195 106.037 75.3482 106.037C76.0826 106.037 76.7824 105.852 77.4359 105.482C78.0894 105.112 78.5983 104.609 78.9569 103.979C79.3097 103.348 79.4889 102.631 79.4889 101.839C79.4889 100.63 79.0899 99.618 78.2976 98.8083C77.4995 97.9987 76.5164 97.5881 75.3539 97.5881Z" fill="white"/>
<path d="M86.8105 107.009V92.5278H88.1522V98.3573C88.7132 97.6633 89.3435 97.1486 90.0433 96.8073C90.7431 96.4661 91.5065 96.2926 92.3335 96.2926C93.8082 96.2926 95.0689 96.8305 96.1157 97.9004C97.1624 98.9703 97.6829 100.271 97.6829 101.804C97.6829 103.313 97.1567 104.603 96.0983 105.673C95.0458 106.743 93.7735 107.275 92.293 107.275C91.4428 107.275 90.6737 107.09 89.9797 106.726C89.2915 106.361 88.6785 105.812 88.1464 105.083V107.003H86.8105V107.009ZM92.1889 105.98C92.9349 105.98 93.6231 105.794 94.2593 105.43C94.8896 105.06 95.3928 104.545 95.7687 103.88C96.1446 103.215 96.3297 102.51 96.3297 101.769C96.3297 101.029 96.1388 100.318 95.7629 99.6469C95.387 98.9761 94.8781 98.4498 94.2419 98.0797C93.6058 97.7095 92.9291 97.5187 92.2062 97.5187C91.4718 97.5187 90.772 97.7037 90.1127 98.0797C89.4534 98.4556 88.9445 98.9587 88.5917 99.5891C88.2389 100.225 88.0597 100.937 88.0597 101.729C88.0597 102.938 88.4587 103.95 89.251 104.765C90.0491 105.575 91.0264 105.98 92.1889 105.98Z" fill="white"/>
<path d="M113.517 96.5644V107.009H112.193V105.216C111.632 105.899 110.996 106.419 110.296 106.76C109.596 107.101 108.827 107.281 107.994 107.281C106.514 107.281 105.253 106.743 104.206 105.673C103.16 104.603 102.639 103.296 102.639 101.758C102.639 100.254 103.165 98.9645 104.224 97.9003C105.282 96.8305 106.549 96.2984 108.035 96.2984C108.891 96.2984 109.666 96.4835 110.366 96.8478C111.06 97.2121 111.667 97.7616 112.193 98.4902V96.5702H113.517V96.5644ZM108.145 97.5881C107.399 97.5881 106.705 97.7731 106.074 98.1375C105.444 98.5076 104.935 99.0223 104.565 99.6874C104.189 100.352 104.004 101.058 104.004 101.798C104.004 102.533 104.195 103.238 104.571 103.909C104.947 104.58 105.456 105.1 106.092 105.476C106.728 105.852 107.41 106.037 108.139 106.037C108.873 106.037 109.573 105.852 110.227 105.482C110.88 105.112 111.389 104.609 111.748 103.979C112.1 103.348 112.28 102.631 112.28 101.839C112.28 100.63 111.881 99.618 111.088 98.8083C110.29 97.9987 109.307 97.5881 108.145 97.5881Z" fill="white"/>
<path d="M119.515 96.5644H120.856V98.4382C121.394 97.7211 121.99 97.1832 122.643 96.8305C123.297 96.4777 124.008 96.2984 124.777 96.2984C125.558 96.2984 126.252 96.495 126.853 96.8941C127.461 97.2931 127.906 97.8252 128.195 98.496C128.484 99.1669 128.629 100.214 128.629 101.636V107.015H127.287V102.03C127.287 100.827 127.235 100.023 127.137 99.618C126.981 98.924 126.68 98.4093 126.24 98.0565C125.801 97.7095 125.223 97.536 124.511 97.536C123.696 97.536 122.967 97.802 122.325 98.3399C121.683 98.8777 121.255 99.5428 121.053 100.335C120.926 100.856 120.862 101.798 120.862 103.175V107.003H119.52V96.5644H119.515Z" fill="white"/>
<path d="M135.65 92.6839H136.991V96.5644H139.125V97.7269H136.991V107.009H135.65V97.7269H133.816V96.5644H135.65V92.6839Z" fill="white"/>
<path d="M149.061 96.2927C150.669 96.2927 152.005 96.8768 153.063 98.0392C154.023 99.1033 154.509 100.358 154.509 101.81C154.509 103.267 154 104.545 152.982 105.638C151.964 106.731 150.657 107.275 149.061 107.275C147.459 107.275 146.146 106.731 145.134 105.638C144.116 104.545 143.607 103.273 143.607 101.81C143.607 100.364 144.087 99.1091 145.053 98.045C146.112 96.8768 147.447 96.2927 149.061 96.2927ZM149.055 97.6112C147.939 97.6112 146.979 98.0219 146.175 98.8489C145.371 99.6759 144.972 100.671 144.972 101.845C144.972 102.602 145.157 103.302 145.522 103.955C145.886 104.609 146.383 105.112 147.008 105.465C147.633 105.818 148.315 105.997 149.061 105.997C149.807 105.997 150.489 105.818 151.114 105.465C151.739 105.112 152.23 104.603 152.6 103.955C152.965 103.302 153.15 102.596 153.15 101.845C153.15 100.671 152.745 99.6759 151.941 98.8489C151.126 98.0219 150.171 97.6112 149.055 97.6112Z" fill="white"/>
<path d="M165.219 97.7037L164.358 98.5944C163.64 97.8946 162.935 97.5476 162.247 97.5476C161.813 97.5476 161.437 97.6922 161.125 97.9813C160.812 98.2705 160.656 98.6059 160.656 98.9876C160.656 99.3288 160.784 99.6527 161.044 99.9592C161.298 100.271 161.842 100.642 162.657 101.064C163.658 101.584 164.34 102.082 164.699 102.562C165.052 103.047 165.231 103.597 165.231 104.204C165.231 105.06 164.93 105.789 164.329 106.384C163.727 106.98 162.975 107.275 162.067 107.275C161.466 107.275 160.888 107.142 160.344 106.882C159.795 106.621 159.344 106.257 158.985 105.794L159.829 104.834C160.518 105.609 161.246 105.997 162.015 105.997C162.553 105.997 163.01 105.823 163.392 105.476C163.768 105.129 163.959 104.725 163.959 104.256C163.959 103.874 163.831 103.527 163.583 103.227C163.334 102.932 162.767 102.562 161.888 102.111C160.945 101.625 160.304 101.145 159.962 100.671C159.621 100.196 159.453 99.6585 159.453 99.0454C159.453 98.2531 159.725 97.5939 160.269 97.0676C160.812 96.5413 161.495 96.2811 162.322 96.2811C163.276 96.2926 164.242 96.7669 165.219 97.7037Z" fill="white"/>
<path d="M74.8624 114.14L74.3592 114.452C73.9255 113.879 73.3356 113.59 72.5838 113.59C71.9823 113.59 71.485 113.781 71.0917 114.169C70.6985 114.556 70.496 115.019 70.496 115.574C70.496 115.932 70.5886 116.268 70.7679 116.586C70.9471 116.904 71.2016 117.147 71.5197 117.32C71.8378 117.494 72.1905 117.581 72.5896 117.581C73.3125 117.581 73.9024 117.292 74.3592 116.719L74.8624 117.049C74.6253 117.401 74.313 117.679 73.9139 117.87C73.5149 118.066 73.0696 118.165 72.5607 118.165C71.7857 118.165 71.138 117.916 70.6291 117.425C70.1144 116.933 69.8599 116.332 69.8599 115.62C69.8599 115.146 69.9813 114.701 70.2185 114.296C70.4556 113.885 70.7852 113.567 71.2074 113.342C71.6238 113.11 72.0922 113 72.6127 113C72.9366 113 73.2546 113.052 73.5554 113.151C73.8561 113.249 74.1163 113.382 74.3245 113.538C74.5385 113.694 74.7178 113.897 74.8624 114.14Z" fill="white"/>
<path d="M82.9994 112.995C83.757 112.995 84.3815 113.266 84.8847 113.816C85.3358 114.313 85.5613 114.909 85.5613 115.591C85.5613 116.279 85.3242 116.881 84.8442 117.39C84.3642 117.905 83.7512 118.159 82.9994 118.159C82.2475 118.159 81.6287 117.905 81.1487 117.39C80.6687 116.875 80.4316 116.274 80.4316 115.591C80.4316 114.909 80.6572 114.319 81.1082 113.822C81.6056 113.272 82.236 112.995 82.9994 112.995ZM82.9936 113.613C82.4673 113.613 82.0162 113.81 81.6403 114.197C81.2644 114.585 81.0735 115.053 81.0735 115.609C81.0735 115.961 81.1603 116.297 81.3338 116.603C81.5073 116.91 81.7386 117.147 82.0336 117.315C82.3285 117.482 82.6466 117.563 82.9994 117.563C83.3521 117.563 83.6702 117.482 83.9652 117.315C84.2601 117.147 84.4914 116.91 84.6649 116.603C84.8384 116.297 84.9252 115.967 84.9252 115.609C84.9252 115.059 84.7343 114.585 84.3584 114.197C83.9709 113.81 83.5198 113.613 82.9936 113.613Z" fill="white"/>
<path d="M91.3214 113.122H91.9518V114.001C92.2062 113.665 92.4838 113.411 92.7903 113.243C93.0969 113.076 93.4323 112.995 93.7908 112.995C94.161 112.995 94.4848 113.087 94.7682 113.272C95.0516 113.457 95.2656 113.712 95.3986 114.024C95.5316 114.336 95.601 114.834 95.601 115.499V118.032H94.9706V115.69C94.9706 115.123 94.9475 114.747 94.9012 114.556C94.826 114.232 94.6872 113.984 94.479 113.822C94.2708 113.66 93.999 113.573 93.6636 113.573C93.2819 113.573 92.9407 113.7 92.6342 113.955C92.3277 114.209 92.1311 114.521 92.0327 114.891C91.9749 115.134 91.9402 115.58 91.9402 116.227V118.032H91.3098V113.122H91.3214Z" fill="white"/>
<path d="M104.033 113.66L103.628 114.082C103.293 113.752 102.957 113.59 102.633 113.59C102.431 113.59 102.252 113.66 102.107 113.793C101.963 113.926 101.887 114.088 101.887 114.267C101.887 114.429 101.945 114.579 102.067 114.724C102.188 114.874 102.443 115.042 102.83 115.244C103.298 115.487 103.622 115.724 103.79 115.95C103.958 116.181 104.039 116.436 104.039 116.725C104.039 117.13 103.894 117.471 103.611 117.748C103.327 118.026 102.975 118.171 102.547 118.171C102.263 118.171 101.991 118.107 101.737 117.986C101.477 117.864 101.263 117.691 101.095 117.477L101.494 117.026C101.818 117.39 102.159 117.575 102.523 117.575C102.778 117.575 102.992 117.494 103.171 117.332C103.35 117.17 103.437 116.979 103.437 116.759C103.437 116.58 103.379 116.418 103.258 116.274C103.142 116.135 102.876 115.961 102.46 115.747C102.015 115.516 101.714 115.291 101.552 115.071C101.39 114.845 101.309 114.591 101.309 114.307C101.309 113.931 101.436 113.625 101.691 113.376C101.945 113.128 102.269 113.006 102.656 113.006C103.119 112.995 103.57 113.214 104.033 113.66Z" fill="white"/>
<path d="M109.666 113.122H110.296V115.418C110.296 115.979 110.325 116.366 110.389 116.574C110.481 116.875 110.655 117.112 110.909 117.286C111.164 117.459 111.47 117.546 111.823 117.546C112.176 117.546 112.476 117.459 112.719 117.292C112.962 117.124 113.136 116.898 113.228 116.621C113.292 116.43 113.321 116.031 113.321 115.412V113.116H113.968V115.528C113.968 116.204 113.888 116.713 113.731 117.06C113.575 117.407 113.332 117.673 113.02 117.864C112.702 118.061 112.303 118.153 111.823 118.153C111.343 118.153 110.944 118.055 110.626 117.864C110.308 117.673 110.065 117.401 109.909 117.049C109.753 116.696 109.672 116.175 109.672 115.481V113.122H109.666Z" fill="white"/>
<path d="M119.867 111.225H120.498V118.038H119.867V111.225Z" fill="white"/>
<path d="M126.958 111.294H127.588V113.122H128.588V113.671H127.588V118.038H126.958V113.671H126.096V113.122H126.958V111.294Z" fill="white"/>
<path d="M136.465 112.995C137.223 112.995 137.847 113.266 138.35 113.816C138.802 114.313 139.027 114.909 139.027 115.591C139.027 116.279 138.79 116.881 138.31 117.39C137.83 117.905 137.217 118.159 136.465 118.159C135.713 118.159 135.095 117.905 134.615 117.39C134.135 116.875 133.897 116.274 133.897 115.591C133.897 114.909 134.123 114.319 134.574 113.822C135.071 113.272 135.702 112.995 136.465 112.995ZM136.459 113.613C135.933 113.613 135.482 113.81 135.106 114.197C134.73 114.585 134.539 115.053 134.539 115.609C134.539 115.961 134.626 116.297 134.8 116.603C134.973 116.91 135.204 117.147 135.499 117.315C135.794 117.482 136.112 117.563 136.465 117.563C136.818 117.563 137.136 117.482 137.431 117.315C137.726 117.147 137.957 116.91 138.131 116.603C138.304 116.297 138.391 115.967 138.391 115.609C138.391 115.059 138.2 114.585 137.824 114.197C137.437 113.81 136.986 113.613 136.459 113.613Z" fill="white"/>
<path d="M144.55 113.122H145.198V113.839C145.389 113.556 145.591 113.342 145.805 113.203C146.019 113.064 146.239 112.995 146.476 112.995C146.649 112.995 146.834 113.052 147.037 113.162L146.707 113.694C146.574 113.637 146.464 113.608 146.372 113.608C146.164 113.608 145.955 113.694 145.765 113.868C145.568 114.041 145.418 114.307 145.319 114.672C145.238 114.949 145.204 115.516 145.204 116.372V118.038H144.556V113.122H144.55Z" fill="white"/>
<path d="M156.267 116.407L156.799 116.684C156.625 117.025 156.423 117.303 156.192 117.517C155.96 117.725 155.706 117.887 155.417 117.997C155.128 118.107 154.804 118.165 154.445 118.165C153.641 118.165 153.017 117.905 152.566 117.378C152.115 116.852 151.889 116.256 151.889 115.597C151.889 114.972 152.08 114.417 152.462 113.931C152.947 113.313 153.595 113 154.41 113C155.249 113 155.92 113.318 156.417 113.955C156.776 114.406 156.955 114.967 156.961 115.638H152.537C152.548 116.21 152.733 116.678 153.086 117.043C153.439 117.407 153.873 117.592 154.393 117.592C154.642 117.592 154.885 117.546 155.122 117.459C155.359 117.372 155.561 117.257 155.723 117.112C155.897 116.962 156.076 116.725 156.267 116.407ZM156.267 115.082C156.18 114.747 156.059 114.475 155.897 114.273C155.735 114.07 155.521 113.908 155.255 113.787C154.989 113.665 154.711 113.602 154.416 113.602C153.936 113.602 153.52 113.758 153.173 114.064C152.918 114.29 152.728 114.631 152.6 115.082H156.267Z" fill="white"/>
<path d="M165.208 113.66L164.803 114.082C164.467 113.752 164.132 113.59 163.814 113.59C163.606 113.59 163.432 113.66 163.288 113.793C163.143 113.926 163.068 114.088 163.068 114.267C163.068 114.429 163.126 114.579 163.247 114.724C163.369 114.874 163.623 115.042 164.011 115.244C164.479 115.487 164.803 115.724 164.971 115.95C165.138 116.181 165.219 116.436 165.219 116.725C165.219 117.13 165.075 117.471 164.791 117.748C164.508 118.026 164.155 118.171 163.727 118.171C163.444 118.171 163.172 118.107 162.918 117.986C162.657 117.864 162.443 117.691 162.276 117.477L162.675 117.026C162.999 117.39 163.34 117.575 163.704 117.575C163.959 117.575 164.173 117.494 164.352 117.332C164.531 117.17 164.618 116.979 164.618 116.759C164.618 116.58 164.56 116.418 164.439 116.274C164.323 116.135 164.057 115.961 163.64 115.747C163.195 115.516 162.894 115.291 162.733 115.071C162.571 114.845 162.49 114.591 162.49 114.307C162.49 113.931 162.617 113.625 162.871 113.376C163.126 113.128 163.45 113.006 163.837 113.006C164.294 112.995 164.745 113.214 165.208 113.66Z" fill="white"/>
</g>
<defs>
<clipPath id="clip0_1183_457">
<rect width="113.299" height="107.348" fill="white" transform="translate(61 19)"/>
</clipPath>
</defs>
</svg>
