<svg width="44" height="44" viewBox="0 0 44 44" fill="none" xmlns="http://www.w3.org/2000/svg">
<path d="M17.3333 35.0001C19.7253 35.0001 21.6666 33.0587 21.6666 30.6667V26.3333H17.3333C14.9413 26.3333 13 28.2746 13 30.6667C13 33.0587 14.9413 35.0001 17.3333 35.0001Z" fill="#0ACF83"/>
<path d="M13 21.9999C13 19.6079 14.9413 17.6666 17.3333 17.6666H21.6666V26.3332H17.3333C14.9413 26.3332 13 24.3919 13 21.9999Z" fill="#A259FF"/>
<path d="M13 13.3333C13 10.9413 14.9413 9 17.3333 9H21.6666V17.6666H17.3333C14.9413 17.6666 13 15.7253 13 13.3333Z" fill="#F24E1E"/>
<path d="M21.668 9H26.0013C28.3933 9 30.3347 10.9413 30.3347 13.3333C30.3347 15.7253 28.3933 17.6666 26.0013 17.6666H21.668V9Z" fill="#FF7262"/>
<path d="M30.3347 21.9999C30.3347 24.3919 28.3933 26.3332 26.0013 26.3332C23.6093 26.3332 21.668 24.3919 21.668 21.9999C21.668 19.6079 23.6093 17.6666 26.0013 17.6666C28.3933 17.6666 30.3347 19.6079 30.3347 21.9999Z" fill="#1ABCFE"/>
</svg>
