<svg width="61" height="60" viewBox="0 0 61 60" fill="none" xmlns="http://www.w3.org/2000/svg">
<path d="M43.0265 19.2402L40.7382 44.8755L30.452 47.7271L20.1942 44.8794L17.9082 19.2402H43.0265Z" fill="#E44D26"/>
<path d="M30.4697 45.5475L38.7814 43.2432L40.7368 21.3367H30.4697V45.5475Z" fill="#F16529"/>
<path d="M26.0206 27.6257H30.469V24.4812H22.584L22.6592 25.3248L23.4321 33.9903H30.469V30.8458H26.308L26.0206 27.6257V27.6257ZM26.7293 35.5627H23.5726L24.0131 40.5001L30.4545 42.2881L30.469 42.2842V39.0125L30.4552 39.0162L26.9532 38.0706L26.7293 35.5627V35.5627Z" fill="#EBEBEB"/>
<path d="M20.2471 12.2726H21.8451V13.8514H23.3069V12.2726H24.905V17.0536H23.307V15.4527H21.8452V17.0536H20.2472V12.2726H20.2471ZM27.0064 13.8581H25.5998V12.2726H30.0122V13.8581H28.6047V17.0536H27.0067V13.8581H27.0066H27.0064ZM30.7125 12.2726H32.3787L33.4037 13.9525L34.4277 12.2726H36.0946V17.0536H34.5031V14.6839L33.4037 16.3838H33.3761L32.276 14.6839V17.0536H30.7125V12.2726ZM36.8899 12.2726H38.4884V15.4733H40.7357V17.0536H36.8898V12.2726H36.8899Z" fill="black"/>
<path d="M30.4581 33.9903H34.3303L33.9652 38.0686L30.458 39.0152V42.2866L36.9045 40.5001L36.9518 39.9688L37.6908 31.6902L37.7675 30.8458H30.4581V33.9903ZM30.4581 27.6181V27.6257H38.0537L38.1167 26.919L38.26 25.3248L38.3352 24.4812H30.4581V27.6182V27.6181Z" fill="white"/>
</svg>
