<svg width="61" height="60" viewBox="0 0 61 60" fill="none" xmlns="http://www.w3.org/2000/svg">
<path d="M12.9092 12.2728H49.1181V47.7274H12.9092V12.2728Z" fill="url(#paint0_linear)"/>
<path d="M26.1208 30.3221H29.3303L27.7256 24.0985L26.1208 30.3221ZM15.6514 15.0488V44.9687H46.4273V15.0488H15.6514ZM31.0917 37.1458L29.9174 33.1012H25.5728L24.3985 37.1458H21.4237L25.6119 22.846V21.2804H29.6043L34.3796 37.1458H31.0917V37.1458ZM38.9984 37.1458H35.7889V25.0772H38.9984V37.1458ZM37.4131 23.6289C36.4943 23.6289 35.7494 22.8929 35.7494 21.985C35.7494 21.0771 36.4942 20.341 37.4131 20.341C38.332 20.341 39.0766 21.0771 39.0766 21.985C39.0766 22.8929 38.3319 23.6289 37.4131 23.6289Z" fill="url(#paint1_linear)"/>
<defs>
<linearGradient id="paint0_linear" x1="48.9295" y1="12.0842" x2="13.4436" y2="47.5701" gradientUnits="userSpaceOnUse">
<stop stop-color="#FFAA2A"/>
<stop offset="1" stop-color="#FFC06C"/>
</linearGradient>
<linearGradient id="paint1_linear" x1="31.0394" y1="14.9986" x2="31.0394" y2="44.8176" gradientUnits="userSpaceOnUse">
<stop stop-color="#251200"/>
<stop offset="1"/>
</linearGradient>
</defs>
</svg>
