<svg width="46" height="46" viewBox="0 0 46 46" fill="none" xmlns="http://www.w3.org/2000/svg">
<rect x="1" y="0.5" width="43.625" height="45" rx="21.8125" fill="#313D4D" stroke="white"/>
<path d="M34.6455 33.3812C33.2469 33.3469 31.8815 33.3469 30.4829 33.3812C30.1832 33.3812 30.1166 33.3125 30.1166 33.0031C30.1166 30.4594 30.1166 27.8812 30.1166 25.3375C30.1166 24.7531 30.0833 24.1687 29.9168 23.6187C29.4173 21.8312 27.4192 21.1781 25.9873 22.3812C25.2214 23 24.9217 23.8594 24.9217 24.8906C24.9217 27.2969 24.9217 29.7031 24.9217 32.1094C24.9217 32.4187 24.8884 32.7281 24.9217 33.0719C24.955 33.3469 24.8218 33.4156 24.5887 33.3812C23.1567 33.3812 21.7581 33.3812 20.3262 33.3812C20.0598 33.3812 19.9932 33.3125 19.9932 33.0375C20.0265 30.8719 20.0265 28.7062 20.0265 26.5062C20.0265 23.825 20.0265 21.1437 19.9932 18.4969C19.9932 18.1875 20.0598 18.1187 20.3262 18.1187C21.7581 18.1187 23.1567 18.1187 24.5887 18.1187C24.8551 18.1187 24.9217 18.1875 24.9217 18.4625C24.9217 19.0125 24.9217 19.5625 24.9217 20.2156C25.0216 20.1125 25.0549 20.0781 25.0882 20.0437C26.3869 18.0844 28.2185 17.5344 30.383 17.8781C32.8806 18.2906 34.479 20.0781 34.8786 22.8281C34.9785 23.4812 35.0118 24.1344 35.0118 24.7875C35.0118 27.5375 35.0118 30.2531 35.0118 33.0031C35.0118 33.2781 34.9452 33.3812 34.6455 33.3812Z" fill="white"/>
<path d="M17.3288 25.75C17.3288 28.1563 17.3288 30.5625 17.3288 32.9688C17.3288 33.2782 17.2622 33.3813 16.9625 33.3813C15.5639 33.3469 14.1652 33.3813 12.7666 33.3813C12.5002 33.3813 12.4336 33.3125 12.4336 33.0375C12.4336 28.1906 12.4336 23.3094 12.4336 18.4625C12.4336 18.2219 12.5002 18.1188 12.7666 18.1188C14.1985 18.1188 15.6305 18.1188 17.0624 18.1188C17.3621 18.1188 17.3954 18.2219 17.3954 18.4969C17.3288 20.9031 17.3288 23.3094 17.3288 25.75Z" fill="white"/>
<path d="M17.5621 14.1313C17.2291 15.5063 15.8638 16.2969 14.2986 16.0219C12.6336 15.7469 11.7012 14.0625 12.3006 12.4125C12.7002 11.3813 13.6659 10.7625 14.898 10.7969C16.7629 10.7625 17.995 12.3094 17.5621 14.1313Z" fill="white"/>
</svg>
