<svg width="44" height="44" viewBox="0 0 44 44" fill="none" xmlns="http://www.w3.org/2000/svg">
<path d="M9 9H35.4405V35H9V9Z" fill="url(#paint0_linear)"/>
<path d="M11.1035 11.0676H33.3386V32.9324H11.1035V11.0676Z" fill="url(#paint1_linear)"/>
<path d="M15.3917 16.3279C15.3917 16.3279 17.0634 16.2839 18.4396 16.2839C19.8302 16.2839 20.8217 16.6111 21.4874 17.186C22.1236 17.7293 22.5527 18.6554 22.5527 19.7096C22.5527 20.7639 22.2271 21.6266 21.6352 22.2331C20.8658 23.0158 19.9693 23.4792 18.4396 23.5432C18.017 23.5609 17.6258 23.5652 17.6258 23.5652V26.9922H15.3916L15.3917 16.3279ZM17.6257 21.6665C17.8685 21.6901 18.0206 21.6787 18.3804 21.6744C19.5788 21.6601 20.3184 20.9313 20.3184 19.8291C20.3184 18.839 19.7085 18.0261 18.558 17.984C18.0995 17.9672 17.6257 17.984 17.6257 17.984V21.6665Z" fill="url(#paint2_linear)"/>
<path d="M23.4056 24.6047C23.8559 24.881 24.9184 25.2948 25.6428 25.2948C26.3828 25.2948 26.6883 25.034 26.6883 24.6274C26.6883 24.2203 26.447 23.7927 25.5298 23.4835C23.9046 22.9301 23.277 22.2677 23.2933 21.3405C23.2933 19.843 24.5482 18.7201 26.4951 18.7201C27.4123 18.7201 28.145 19.0199 28.6273 19.2639V21.0612C28.2729 20.8657 27.2513 20.4292 26.5757 20.4292C25.98 20.4292 25.6423 20.6734 25.6423 21.0799C25.6423 21.4543 25.9482 21.6496 26.9136 21.9915C28.4097 22.5123 29.0374 23.2769 29.0532 24.4487C29.0532 25.9298 27.9115 27.1076 25.6423 27.0361C24.8635 27.0116 24.0008 26.7038 23.4054 26.3787L23.4056 24.6047Z" fill="url(#paint3_linear)"/>
<defs>
<linearGradient id="paint0_linear" x1="15.4255" y1="7.64218" x2="25.5611" y2="29.0592" gradientUnits="userSpaceOnUse">
<stop stop-color="#A0CBFF"/>
<stop offset="0.394" stop-color="#A0CBFE"/>
<stop offset="0.583" stop-color="#8EC2FC"/>
<stop offset="0.784" stop-color="#83BCFB"/>
<stop offset="1" stop-color="#7FBAFB"/>
</linearGradient>
<linearGradient id="paint1_linear" x1="19.0239" y1="11.3757" x2="24.7526" y2="30.4131" gradientUnits="userSpaceOnUse">
<stop stop-color="#090058"/>
<stop offset="1" stop-color="#070033"/>
</linearGradient>
<linearGradient id="paint2_linear" x1="12.2751" y1="8.78184" x2="22.4105" y2="30.1984" gradientUnits="userSpaceOnUse">
<stop stop-color="#A0CBFF"/>
<stop offset="0.394" stop-color="#A0CBFE"/>
<stop offset="0.583" stop-color="#8EC2FC"/>
<stop offset="0.784" stop-color="#83BCFB"/>
<stop offset="1" stop-color="#7FBAFB"/>
</linearGradient>
<linearGradient id="paint3_linear" x1="18.0485" y1="5.98497" x2="28.2243" y2="27.4869" gradientUnits="userSpaceOnUse">
<stop stop-color="#A0CBFF"/>
<stop offset="0.394" stop-color="#A0CBFE"/>
<stop offset="0.583" stop-color="#8EC2FC"/>
<stop offset="0.784" stop-color="#83BCFB"/>
<stop offset="1" stop-color="#7FBAFB"/>
</linearGradient>
</defs>
</svg>
