<svg width="47" height="46" viewBox="0 0 47 46" fill="none" xmlns="http://www.w3.org/2000/svg">
<rect x="0.75" y="0.5" width="45" height="45" rx="22.5" fill="#313D4D" stroke="white"/>
<path d="M18.1461 13.7843C18.9927 13.7843 19.7743 13.8494 20.4907 14.0448C21.2071 14.1751 21.7933 14.4356 22.3143 14.7612C22.8353 15.0869 23.2261 15.5428 23.4866 16.1289C23.7471 16.7151 23.8774 17.4315 23.8774 18.213C23.8774 19.1248 23.682 19.9064 23.2261 20.4925C22.8353 21.0787 22.184 21.5997 21.4025 21.9905C22.5097 22.3161 23.3564 22.9023 23.8774 23.6838C24.3984 24.4654 24.724 25.4423 24.724 26.5495C24.724 27.4613 24.5287 28.2428 24.203 28.8941C23.8774 29.5454 23.3564 30.1315 22.7702 30.5223C22.184 30.9131 21.4676 31.2387 20.6861 31.4341C19.9045 31.6295 19.123 31.7597 18.3415 31.7597H9.61426V13.7843H18.1461ZM17.6251 21.0787C18.3415 21.0787 18.9276 20.8833 19.3835 20.5577C19.8394 20.232 20.0348 19.6459 20.0348 18.9294C20.0348 18.5387 19.9697 18.1479 19.8394 17.8874C19.7092 17.6269 19.5138 17.4315 19.2533 17.2361C18.9927 17.1059 18.7322 16.9756 18.4066 16.9105C18.081 16.8453 17.7553 16.8453 17.3645 16.8453H13.5871V21.0787H17.6251ZM17.8204 28.7638C18.2112 28.7638 18.602 28.6987 18.9276 28.6336C19.2533 28.5685 19.5789 28.4382 19.8394 28.2428C20.0999 28.0474 20.2953 27.852 20.4907 27.5264C20.621 27.2008 20.7512 26.81 20.7512 26.3541C20.7512 25.4423 20.4907 24.791 19.9697 24.3351C19.4486 23.9443 18.7322 23.7489 17.8856 23.7489H13.5871V28.7638H17.8204ZM30.3902 28.6987C30.9112 29.2197 31.6928 29.4802 32.7348 29.4802C33.4513 29.4802 34.1025 29.2849 34.6236 28.9592C35.1446 28.5684 35.4702 28.1777 35.6005 27.7869H38.7918C38.2708 29.35 37.4892 30.4572 36.4472 31.1736C35.4051 31.8249 34.1677 32.2156 32.6697 32.2156C31.6277 32.2156 30.7159 32.0203 29.8692 31.6946C29.0225 31.369 28.3712 30.9131 27.7851 30.2618C27.1989 29.6756 26.743 28.9592 26.4825 28.1126C26.1569 27.2659 26.0266 26.3541 26.0266 25.312C26.0266 24.3351 26.1569 23.4233 26.4825 22.5766C26.8082 21.73 27.2641 21.0136 27.8502 20.3623C28.4364 19.7761 29.1528 19.2551 29.9343 18.9294C30.781 18.6038 31.6277 18.4084 32.6697 18.4084C33.7769 18.4084 34.7538 18.6038 35.6005 19.0597C36.4472 19.5156 37.0984 20.0366 37.6195 20.8182C38.1405 21.5346 38.5313 22.3813 38.7918 23.293C38.922 24.2048 38.9872 25.1166 38.922 26.1587H29.4784C29.4784 27.2008 29.8692 28.1777 30.3902 28.6987ZM34.4933 21.8602C34.0374 21.4043 33.321 21.1438 32.4743 21.1438C31.8882 21.1438 31.4323 21.2741 31.0415 21.4695C30.6507 21.6648 30.3902 21.9254 30.1297 22.1859C29.8692 22.4464 29.7389 22.772 29.6738 23.0977C29.6087 23.4233 29.5436 23.6838 29.5436 23.9443H35.4051C35.2748 22.9674 34.9492 22.3161 34.4933 21.8602ZM28.762 15.0217H36.0564V16.7802H28.762V15.0217Z" fill="white"/>
</svg>
