<svg width="89" height="89" viewBox="0 0 89 89" fill="none" xmlns="http://www.w3.org/2000/svg">
<rect x="0.5" y="0.246338" width="88" height="88" rx="44" fill="#484848"/>
<path d="M34.2929 25.8151C35.9862 25.8151 37.5493 25.9453 38.9821 26.3361C40.415 26.5966 41.5873 27.1176 42.6293 27.7689C43.6714 28.4202 44.4529 29.332 44.9739 30.5043C45.495 31.6766 45.7555 33.1094 45.7555 34.6725C45.7555 36.4961 45.3647 38.0592 44.4529 39.2315C43.6714 40.4038 42.3688 41.4459 40.8057 42.2274C43.0201 42.8787 44.7134 44.051 45.7555 45.6141C46.7975 47.1772 47.4488 49.131 47.4488 51.3454C47.4488 53.169 47.0581 54.7321 46.4068 56.0346C45.7555 57.3372 44.7134 58.5095 43.5411 59.2911C42.3688 60.0726 40.936 60.7239 39.3729 61.1147C37.8098 61.5054 36.2467 61.7659 34.6837 61.7659H17.2292V25.8151H34.2929ZM33.2508 40.4038C34.6837 40.4038 35.856 40.0131 36.7678 39.3618C37.6796 38.7105 38.0703 37.5382 38.0703 36.1054C38.0703 35.3238 37.9401 34.5423 37.6796 34.0212C37.4191 33.5002 37.0283 33.1094 36.5073 32.7187C35.9862 32.4582 35.4652 32.1976 34.8139 32.0674C34.1626 31.9371 33.5113 31.9371 32.7298 31.9371H25.1749V40.4038H33.2508ZM33.6416 55.7741C34.4231 55.7741 35.2047 55.6439 35.856 55.5136C36.5073 55.3834 37.1585 55.1228 37.6796 54.7321C38.2006 54.3413 38.5914 53.9505 38.9821 53.2993C39.2427 52.648 39.5032 51.8664 39.5032 50.9546C39.5032 49.131 38.9821 47.8285 37.9401 46.9167C36.898 46.1351 35.4652 45.7444 33.7719 45.7444H25.1749V55.7741H33.6416ZM58.7812 55.6439C59.8232 56.6859 61.3863 57.207 63.4704 57.207C64.9032 57.207 66.2058 56.8162 67.2479 56.1649C68.2899 55.3834 68.9412 54.6018 69.2017 53.8203H75.5843C74.5422 56.9464 72.9792 59.1608 70.8951 60.5936C68.8109 61.8962 66.3361 62.6777 63.3402 62.6777C61.2561 62.6777 59.4325 62.287 57.7391 61.6357C56.0458 60.9844 54.7432 60.0726 53.5709 58.77C52.3986 57.5977 51.4868 56.1649 50.9658 54.4716C50.3145 52.7782 50.054 50.9546 50.054 48.8705C50.054 46.9167 50.3145 45.0931 50.9658 43.3997C51.617 41.7064 52.5288 40.2736 53.7012 38.971C54.8735 37.7987 56.3063 36.7566 57.8694 36.1054C59.5627 35.4541 61.2561 35.0633 63.3402 35.0633C65.5545 35.0633 67.5084 35.4541 69.2017 36.3659C70.8951 37.2777 72.1976 38.3197 73.2397 39.8828C74.2817 41.3156 75.0633 43.009 75.5843 44.8326C75.8448 46.6562 75.9751 48.4797 75.8448 50.5639H56.9576C56.9576 52.648 57.7391 54.6018 58.7812 55.6439ZM66.9874 41.9669C66.0756 41.0551 64.6427 40.5341 62.9494 40.5341C61.7771 40.5341 60.8653 40.7946 60.0837 41.1854C59.3022 41.5761 58.7812 42.0972 58.2601 42.6182C57.7391 43.1392 57.4786 43.7905 57.3483 44.4418C57.2181 45.0931 57.0878 45.6141 57.0878 46.1351H68.8109C68.5504 44.1813 67.8991 42.8787 66.9874 41.9669ZM55.5247 28.2899H70.1135V31.8069H55.5247V28.2899Z" fill="white"/>
</svg>
