<svg width="47" height="46" viewBox="0 0 47 46" fill="none" xmlns="http://www.w3.org/2000/svg">
<rect x="0.75" y="0.5" width="45" height="45" rx="22.5" fill="#1D1D1D" stroke="white"/>
<path d="M18.1464 13.7844C18.9931 13.7844 19.7747 13.8495 20.4911 14.0449C21.2075 14.1751 21.7936 14.4356 22.3147 14.7613C22.8357 15.0869 23.2265 15.5428 23.487 16.129C23.7475 16.7151 23.8777 17.4316 23.8777 18.2131C23.8777 19.1249 23.6824 19.9064 23.2265 20.4926C22.8357 21.0787 22.1844 21.5998 21.4029 21.9905C22.51 22.3162 23.3567 22.9023 23.8777 23.6839C24.3988 24.4654 24.7244 25.4423 24.7244 26.5495C24.7244 27.4613 24.529 28.2429 24.2034 28.8942C23.8777 29.5454 23.3567 30.1316 22.7706 30.5224C22.1844 30.9131 21.468 31.2388 20.6865 31.4342C19.9049 31.6295 19.1234 31.7598 18.3418 31.7598H9.61462V13.7844H18.1464ZM17.6254 21.0787C18.3418 21.0787 18.928 20.8834 19.3839 20.5577C19.8398 20.2321 20.0352 19.6459 20.0352 18.9295C20.0352 18.5387 19.97 18.148 19.8398 17.8875C19.7095 17.6269 19.5141 17.4316 19.2536 17.2362C18.9931 17.1059 18.7326 16.9757 18.407 16.9105C18.0813 16.8454 17.7557 16.8454 17.3649 16.8454H13.5875V21.0787H17.6254ZM17.8208 28.7639C18.2116 28.7639 18.6023 28.6988 18.928 28.6336C19.2536 28.5685 19.5793 28.4383 19.8398 28.2429C20.1003 28.0475 20.2957 27.8521 20.4911 27.5265C20.6213 27.2008 20.7516 26.81 20.7516 26.3541C20.7516 25.4423 20.4911 24.7911 19.97 24.3352C19.449 23.9444 18.7326 23.749 17.8859 23.749H13.5875V28.7639H17.8208ZM30.3906 28.6988C30.9116 29.2198 31.6932 29.4803 32.7352 29.4803C33.4516 29.4803 34.1029 29.2849 34.6239 28.9593C35.145 28.5685 35.4706 28.1777 35.6009 27.787H38.7922C38.2711 29.3501 37.4896 30.4572 36.4475 31.1736C35.4055 31.8249 34.168 32.2157 32.6701 32.2157C31.628 32.2157 30.7162 32.0203 29.8696 31.6947C29.0229 31.369 28.3716 30.9131 27.7854 30.2619C27.1993 29.6757 26.7434 28.9593 26.4829 28.1126C26.1572 27.2659 26.027 26.3541 26.027 25.3121C26.027 24.3352 26.1572 23.4234 26.4829 22.5767C26.8085 21.73 27.2644 21.0136 27.8506 20.3623C28.4367 19.7762 29.1531 19.2551 29.9347 18.9295C30.7814 18.6039 31.628 18.4085 32.6701 18.4085C33.7773 18.4085 34.7542 18.6039 35.6009 19.0598C36.4475 19.5157 37.0988 20.0367 37.6198 20.8182C38.1409 21.5346 38.5316 22.3813 38.7922 23.2931C38.9224 24.2049 38.9875 25.1167 38.9224 26.1588H29.4788C29.4788 27.2008 29.8696 28.1777 30.3906 28.6988ZM34.4937 21.8603C34.0378 21.4044 33.3214 21.1439 32.4747 21.1439C31.8885 21.1439 31.4326 21.2741 31.0419 21.4695C30.6511 21.6649 30.3906 21.9254 30.1301 22.1859C29.8696 22.4464 29.7393 22.7721 29.6742 23.0977C29.609 23.4234 29.5439 23.6839 29.5439 23.9444H35.4055C35.2752 22.9675 34.9496 22.3162 34.4937 21.8603ZM28.7624 15.0218H36.0568V16.7803H28.7624V15.0218Z" fill="white"/>
</svg>
