<svg width="61" height="60" viewBox="0 0 61 60" fill="none" xmlns="http://www.w3.org/2000/svg">
<path d="M38.1355 13.5846H36.0521L38.2192 15.9376V17.0566H33.7544V15.7461H35.9216L33.7544 13.3932V12.2727H38.137L38.1355 13.5846ZM32.868 13.5846H30.7817L32.9517 15.9376V17.0566H28.4855V15.7461H30.6526L28.4855 13.3932V12.2727H32.868V13.5846ZM27.6515 13.6385H25.4035V15.6922H27.6515V17.058H23.8037V12.2727H27.6515V13.6385Z" fill="#131313"/>
<path d="M20.7414 44.8806L18.4551 19.2419H43.5732L41.284 44.8763L30.9985 47.7271L20.7414 44.8806Z" fill="#1572B6"/>
<path d="M31.0137 45.5489L39.3249 43.2442L41.2793 21.3385H31.0137V45.5489Z" fill="#33A9DC"/>
<path d="M31.0137 30.6268H35.175L35.4615 27.4073H31.0137V24.2644H38.8994L38.8243 25.1083L38.0513 33.7739H31.0137V30.6268Z" fill="white"/>
<path d="M31.033 38.7938H31.0188L27.517 37.8477L27.2929 35.3401H24.1387L24.5798 40.2773L31.0216 42.0701H31.0401V38.7938H31.033Z" fill="#EBEBEB"/>
<path d="M34.9096 33.6364L34.5309 37.8445L31.0234 38.7905V42.0668L37.4696 40.2797L37.5164 39.7479L38.0639 33.635H34.9096V33.6364Z" fill="white"/>
<path d="M31.0246 24.2644V27.4087H23.4311L23.3659 26.7024L23.2226 25.1083L23.1475 24.2644H31.0246ZM31.0133 30.6268V33.7711H27.5512L27.4902 33.0648L27.347 31.4706L27.2718 30.6268H31.0118H31.0133Z" fill="#EBEBEB"/>
</svg>
