<svg width="44" height="44" viewBox="0 0 44 44" fill="none" xmlns="http://www.w3.org/2000/svg">
<path d="M27.4329 9.96207H25.905L27.4942 11.6876V12.5082H24.2201V11.5471H25.8093L24.2201 9.82166V9H27.4339L27.4329 9.96207ZM23.57 9.96207H22.04L23.6314 11.6876V12.5082H20.3562V11.5471H21.9454L20.3562 9.82166V9H23.57V9.96207ZM19.7446 10.0016H18.0961V11.5076H19.7446V12.5092H16.9229V9H19.7446V10.0016Z" fill="#131313"/>
<path d="M14.6766 32.9125L13 14.1108H31.4199L29.7412 32.9094L22.1985 34.9999L14.6766 32.9125Z" fill="#1572B6"/>
<path d="M22.21 33.4026L28.3049 31.7125L29.7381 15.6483H22.21V33.4026Z" fill="#33A9DC"/>
<path d="M22.21 22.4597H25.2616L25.4717 20.0987H22.21V17.7939H27.9928L27.9377 18.4128L27.3709 24.7676H22.21V22.4597Z" fill="white"/>
<path d="M22.2238 28.4488H22.2134L19.6454 27.7551L19.4811 25.9161H17.168L17.4914 29.5368L22.2155 30.8515H22.229V28.4488H22.2238Z" fill="#EBEBEB"/>
<path d="M25.0666 24.6668L24.7889 27.7528L22.2168 28.4465V30.8491L26.944 29.5386L26.9783 29.1485L27.3798 24.6658H25.0666V24.6668Z" fill="white"/>
<path d="M22.218 17.7939V20.0998H16.6494L16.6016 19.5818L16.4965 18.4128L16.4414 17.7939H22.218ZM22.2097 22.4597V24.7655H19.6708L19.6261 24.2476L19.5211 23.0785L19.4659 22.4597H22.2086H22.2097Z" fill="#EBEBEB"/>
</svg>
