<svg width="44" height="44" viewBox="0 0 44 44" fill="none" xmlns="http://www.w3.org/2000/svg">
<path d="M31.4201 14.1096L29.742 32.9088L22.1988 35L14.6764 32.9117L13 14.1096H31.4201Z" fill="#E44D26"/>
<path d="M22.2119 33.4016L28.3071 31.7118L29.7411 15.647H22.2119V33.4016Z" fill="#F16529"/>
<path d="M18.9489 20.259H22.2111V17.953H16.4287L16.4839 18.5717L17.0507 24.9264H22.2111V22.6204H19.1596L18.9489 20.259ZM19.4686 26.0794H17.1537L17.4768 29.7002L22.2005 31.0114L22.2111 31.0085V28.6093L22.201 28.612L19.6328 27.9185L19.4686 26.0794Z" fill="#EBEBEB"/>
<path d="M14.7148 9H15.8867V10.1578H16.9587V9H18.1307V12.5061H16.9588V11.3321H15.8868V12.5061H14.7149V9H14.7148ZM19.6717 10.1627H18.6402V9H21.8759V10.1627H20.8438V12.5061H19.6719V10.1627H19.6718H19.6717ZM22.3895 9H23.6114L24.363 10.232L25.114 9H26.3364V12.5061H25.1693V10.7683L24.363 12.0149H24.3428L23.5361 10.7683V12.5061H22.3895V9ZM26.9196 9H28.0918V11.3472H29.7398V12.5061H26.9195V9H26.9196Z" fill="black"/>
<path d="M22.2032 24.9264H25.0428L24.775 27.9171L22.2031 28.6113V31.0103L26.9306 29.7002L26.9652 29.3106L27.5072 23.2396L27.5634 22.6204H22.2032V24.9264ZM22.2032 20.2534V20.259H27.7733L27.8195 19.7407L27.9246 18.5717L27.9797 17.953H22.2032V20.2534V20.2534Z" fill="white"/>
</svg>
