<svg width="44" height="44" viewBox="0 0 44 44" fill="none" xmlns="http://www.w3.org/2000/svg">
<path d="M9 9H35.5532V35H9V9Z" fill="url(#paint0_linear)"/>
<path d="M18.6883 22.2361H21.042L19.8652 17.6722L18.6883 22.2361ZM11.0107 11.0358V32.977H33.5798V11.0358H11.0107ZM22.3337 27.2402L21.4725 24.2742H18.2864L17.4253 27.2402H15.2438L18.3151 16.7537V15.6056H21.2429L24.7447 27.2402H22.3337ZM28.1319 27.2402H25.7782V18.3899H28.1319V27.2402ZM26.9693 17.3279C26.2956 17.3279 25.7493 16.7881 25.7493 16.1223C25.7493 15.4565 26.2955 14.9167 26.9693 14.9167C27.6432 14.9167 28.1893 15.4565 28.1893 16.1223C28.1893 16.7881 27.6431 17.3279 26.9693 17.3279Z" fill="url(#paint1_linear)"/>
<defs>
<linearGradient id="paint0_linear" x1="35.4149" y1="8.86165" x2="9.39189" y2="34.8846" gradientUnits="userSpaceOnUse">
<stop stop-color="#FFAA2A"/>
<stop offset="1" stop-color="#FFC06C"/>
</linearGradient>
<linearGradient id="paint1_linear" x1="22.2953" y1="10.9989" x2="22.2953" y2="32.8662" gradientUnits="userSpaceOnUse">
<stop stop-color="#251200"/>
<stop offset="1"/>
</linearGradient>
</defs>
</svg>
