<svg width="86" height="89" viewBox="0 0 86 89" fill="none" xmlns="http://www.w3.org/2000/svg">
<rect y="0.246338" width="85.25" height="88" rx="42.625" fill="#484848"/>
<path d="M66.2908 65.0088C63.4935 64.9401 60.7628 64.9401 57.9656 65.0088C57.3662 65.0088 57.233 64.8713 57.233 64.2526C57.233 59.1651 57.233 54.0088 57.233 48.9213C57.233 47.7526 57.1664 46.5838 56.8334 45.4838C55.8343 41.9088 51.8382 40.6026 48.9744 43.0088C47.4425 44.2463 46.8431 45.9651 46.8431 48.0276C46.8431 52.8401 46.8431 57.6526 46.8431 62.4651C46.8431 63.0838 46.7765 63.7026 46.8431 64.3901C46.9097 64.9401 46.6433 65.0776 46.1771 65.0088C43.3132 65.0088 40.516 65.0088 37.6521 65.0088C37.1193 65.0088 36.9861 64.8713 36.9861 64.3213C37.0527 59.9901 37.0527 55.6588 37.0527 51.2588C37.0527 45.8963 37.0527 40.5338 36.9861 35.2401C36.9861 34.6213 37.1193 34.4838 37.6521 34.4838C40.516 34.4838 43.3132 34.4838 46.1771 34.4838C46.7099 34.4838 46.8431 34.6213 46.8431 35.1713C46.8431 36.2713 46.8431 37.3713 46.8431 38.6776C47.0429 38.4713 47.1095 38.4026 47.1761 38.3338C49.7736 34.4151 53.4367 33.3151 57.7658 34.0026C62.7609 34.8276 65.9578 38.4026 66.757 43.9026C66.9568 45.2088 67.0234 46.5151 67.0234 47.8213C67.0234 53.3213 67.0234 58.7526 67.0234 64.2526C67.0234 64.8026 66.8902 65.0088 66.2908 65.0088Z" fill="white"/>
<path d="M31.6579 49.7463C31.6579 54.5588 31.6579 59.3713 31.6579 64.1838C31.6579 64.8025 31.5247 65.0088 30.9252 65.0088C28.128 64.94 25.3307 65.0088 22.5334 65.0088C22.0006 65.0088 21.8674 64.8713 21.8674 64.3213C21.8674 54.6275 21.8674 44.865 21.8674 35.1713C21.8674 34.69 22.0006 34.4838 22.5334 34.4838C25.3973 34.4838 28.2612 34.4838 31.1251 34.4838C31.7245 34.4838 31.7911 34.69 31.7911 35.24C31.6579 40.0525 31.6579 44.865 31.6579 49.7463Z" fill="white"/>
<path d="M32.1242 26.5089C31.4582 29.2589 28.7275 30.8401 25.5972 30.2901C22.2672 29.7401 20.4023 26.3714 21.6012 23.0714C22.4004 21.0089 24.3318 19.7714 26.7961 19.8401C30.5258 19.7714 32.99 22.8651 32.1242 26.5089Z" fill="white"/>
</svg>
