<svg width="45" height="45" viewBox="0 0 45 45" fill="none" xmlns="http://www.w3.org/2000/svg">
<g clip-path="url(#clip0_1185_506)">
<path d="M45 0H0V45H45V0Z" fill="#313D4D"/>
<path d="M29.582 44.7809C29.3724 44.8508 29.3057 44.8921 29.239 44.8921C25.9719 44.8762 26.6863 45.3429 25.7751 42.6187C22.219 31.9823 18.6979 21.3395 15.164 10.6999C15.0688 10.4142 14.9481 10.1379 14.764 9.66804C14.5767 10.0871 14.4401 10.3316 14.3544 10.5952C10.8301 21.3109 7.30897 32.0267 3.79419 42.7457C3.00042 45.1651 2.88612 45.2381 0.00317383 44.7873C4.86418 29.963 9.72518 15.1513 14.5862 0.34291C14.6846 0.33021 14.783 0.31751 14.8815 0.30481C19.7774 15.1101 24.6701 29.9153 29.582 44.7809Z" fill="white"/>
<path d="M33.9603 44.781C33.6301 43.7745 33.3793 43.0029 33.0967 42.1393C36.3575 41.3773 38.9928 39.8564 40.6343 37.056C41.7964 35.0716 42.117 32.9444 41.7837 30.7123C41.1201 26.2387 37.5323 23.2636 31.6616 22.3714C31.6616 21.5142 31.6616 20.6442 31.6616 19.7457C32.4522 19.5806 33.2301 19.4663 33.9794 19.2599C38.2435 18.0883 41.009 14.1481 40.4343 10.1062C39.8278 5.86434 36.1416 2.81312 31.5695 2.78772C29.166 2.77184 26.7593 2.78137 24.2574 2.78137C24.2574 6.51841 24.2574 10.1507 24.2574 13.7861C22.1555 9.46485 20.4759 5.08646 21.4284 0.00954967C22.6921 0.00954967 23.9431 -0.0126757 25.1908 0.0127247C28.2135 0.0730507 31.2869 -0.161903 34.2461 0.285779C42.5679 1.5431 46.3176 11.4874 41.0566 17.9803C40.1612 19.0853 39.2182 20.1521 38.5959 20.8823C39.3865 21.7745 40.4628 23.0541 41.6122 24.2733C48.2227 31.2648 44.3713 40.7582 36.8179 43.9904C35.9511 44.3618 34.9795 44.5047 33.9603 44.781Z" fill="white"/>
</g>
<defs>
<clipPath id="clip0_1185_506">
<rect width="45" height="45" fill="white"/>
</clipPath>
</defs>
</svg>
