<svg width="45" height="45" viewBox="0 0 45 45" fill="none" xmlns="http://www.w3.org/2000/svg">
<rect x="0.989011" y="0.989011" width="43.022" height="43.022" stroke="white" stroke-width="1.97802"/>
<mask id="mask0" mask-type="alpha" maskUnits="userSpaceOnUse" x="0" y="0" width="45" height="45">
<rect x="0.989011" y="0.989011" width="43.022" height="43.022" fill="black" stroke="white" stroke-width="1.97802"/>
</mask>
<g mask="url(#mask0)">
<path d="M29.3366 43.3098C29.4485 43.3098 29.5044 43.3937 29.5044 43.5615C29.5044 43.7293 29.4485 43.8132 29.3366 43.8132C28.8053 43.8132 27.9804 43.7852 26.8618 43.7293C25.7433 43.6734 24.9323 43.6454 24.429 43.6454C23.8138 43.6454 23.0308 43.6734 22.08 43.7293C21.1852 43.7852 20.5001 43.8132 20.0247 43.8132C19.9128 43.8132 19.8569 43.7293 19.8569 43.5615C19.8569 43.3937 19.9128 43.3098 20.0247 43.3098C21.0594 43.3098 21.8144 43.2119 22.2898 43.0162C22.7651 42.8205 23.0028 42.4849 23.0028 42.0095C23.0028 41.618 22.8211 41.0168 22.4575 40.2058L18.7244 32.2781H8.74131L6.09873 38.4861C5.70723 39.4368 5.51149 40.2058 5.51149 40.7931C5.51149 41.66 5.84705 42.3031 6.51818 42.7226C7.21728 43.1141 8.25194 43.3098 9.62217 43.3098C9.76198 43.3098 9.83189 43.3937 9.83189 43.5615C9.83189 43.7293 9.76198 43.8132 9.62217 43.8132C9.11882 43.8132 8.39176 43.7852 7.44099 43.7293C6.37836 43.6734 5.45556 43.6454 4.67257 43.6454C3.94551 43.6454 3.1066 43.6734 2.15583 43.7293C1.31692 43.7852 0.617823 43.8132 0.0585473 43.8132C-0.0812717 43.8132 -0.151181 43.7293 -0.151181 43.5615C-0.151181 43.3937 -0.0812717 43.3098 0.0585473 43.3098C0.841533 43.3098 1.49868 43.17 2.02999 42.8904C2.58927 42.5828 3.1066 42.0654 3.58199 41.3384C4.08533 40.5834 4.63063 39.5067 5.21787 38.1086L14.0684 17.2196C14.1243 17.1357 14.2222 17.0938 14.362 17.0938C14.5018 17.0938 14.5857 17.1357 14.6137 17.2196L24.5129 38.0666C25.4637 40.1359 26.2746 41.5341 26.9457 42.2612C27.6169 42.9603 28.4138 43.3098 29.3366 43.3098ZM9.07687 31.4392H18.3469L13.4392 21.0786L9.07687 31.4392Z" fill="white"/>
<path d="M35.5529 29.0483C37.7621 29.2161 39.5378 29.9571 40.88 31.2714C42.2503 32.5577 42.9354 34.1657 42.9354 36.0952C42.9354 37.5772 42.5718 38.9195 41.8448 40.122C41.1177 41.3244 40.111 42.2752 38.8247 42.9743C37.5663 43.6454 36.1542 43.981 34.5882 43.981C33.6654 43.981 32.6587 43.939 31.5681 43.8551C31.1766 43.8272 30.7152 43.7992 30.1839 43.7712C29.6526 43.7433 29.0653 43.7293 28.4222 43.7293L25.5699 43.7712C25.0665 43.7992 24.3534 43.8132 23.4306 43.8132C23.3747 43.8132 23.3467 43.7293 23.3467 43.5615C23.3467 43.3937 23.3747 43.3098 23.4306 43.3098C24.4653 43.3098 25.2343 43.2399 25.7376 43.1001C26.241 42.9323 26.5905 42.6527 26.7863 42.2612C26.982 41.8697 27.0799 41.2545 27.0799 40.4156V20.9947C27.0799 20.1558 26.982 19.5406 26.7863 19.1491C26.6185 18.7576 26.2829 18.492 25.7796 18.3521C25.3042 18.1844 24.5492 18.1005 23.5145 18.1005C23.4306 18.1005 23.3887 18.0166 23.3887 17.8488C23.3887 17.681 23.4306 17.5971 23.5145 17.5971L25.5699 17.6391C26.7443 17.695 27.6951 17.723 28.4222 17.723C28.9255 17.723 29.3869 17.709 29.8064 17.681C30.2538 17.653 30.6313 17.6251 30.9389 17.5971C31.8058 17.5132 32.6167 17.4713 33.3718 17.4713C35.7207 17.4713 37.4824 17.9886 38.6569 19.0233C39.8314 20.03 40.4186 21.3582 40.4186 23.0081C40.4186 24.3504 39.9852 25.5528 39.1183 26.6154C38.2514 27.6501 37.063 28.461 35.5529 29.0483ZM32.4909 18.1005C31.7638 18.1005 31.2185 18.1704 30.855 18.3102C30.4915 18.422 30.2258 18.6877 30.058 19.1072C29.8903 19.4987 29.8064 20.1558 29.8064 21.0786V29.0483L31.6939 29.0902C33.7353 29.0902 35.2453 28.5729 36.2241 27.5382C37.2028 26.4756 37.6922 25.0774 37.6922 23.3437C37.6922 21.7777 37.2587 20.5193 36.3918 19.5686C35.5529 18.5898 34.2526 18.1005 32.4909 18.1005ZM33.959 43.2259C36.0004 43.2259 37.5104 42.7086 38.4891 41.6739C39.4958 40.6113 39.9992 39.1013 39.9992 37.1438C39.9992 35.0186 39.37 33.2988 38.1116 31.9845C36.8812 30.6702 35.1754 29.9991 32.9942 29.9711C32.0994 29.9431 31.0368 29.9711 29.8064 30.055V40.4156C29.8064 41.1426 29.9042 41.7019 30.1 42.0934C30.3237 42.4849 30.7292 42.7785 31.3164 42.9743C31.9316 43.142 32.8125 43.2259 33.959 43.2259Z" fill="white"/>
</g>
</svg>
