<svg width="88" height="89" viewBox="0 0 88 89" fill="none" xmlns="http://www.w3.org/2000/svg">
<rect y="0.246338" width="88" height="88" rx="44" fill="#484848"/>
<path d="M70.5834 65.6178L66.6064 61.6368C66.1877 61.4273 65.9784 60.7987 65.9784 60.3797V28.5321C65.9784 28.113 66.1877 27.4844 66.6064 27.0654L70.5834 22.4559V22.2463H56.3498L45.6746 49.2749L33.5342 22.2463H18.882V22.4559L22.6497 27.694C23.487 28.532 23.6963 29.7892 23.6963 30.8368V53.8844C23.9056 55.1416 23.6963 56.6082 23.0683 57.8654L17.4167 65.6178V65.8273H32.4876V65.6178L26.836 58.0749C26.2081 56.8178 25.9988 55.5606 26.2081 54.094V33.1416C26.4174 33.5606 26.6267 33.5606 26.836 34.3987L41.0696 66.2463H41.2789L55.0939 31.6749C54.8846 32.9321 54.8846 34.3987 54.8846 35.4463V60.1701C54.8846 60.7987 54.6753 61.2178 54.2566 61.6368L50.0703 65.6178V65.8273H70.5834V65.6178Z" fill="white"/>
</svg>
