<svg width="46" height="46" viewBox="0 0 46 46" fill="none" xmlns="http://www.w3.org/2000/svg">
<rect x="0.5" y="0.5" width="45" height="45" rx="22.5" fill="#313D4D" stroke="white"/>
<path d="M36.2913 33.6857L34.3028 31.6952C34.0935 31.5905 33.9888 31.2762 33.9888 31.0667V15.1429C33.9888 14.9333 34.0935 14.619 34.3028 14.4095L36.2913 12.1048V12H29.1745L23.8369 25.5143L17.7667 12H10.4406V12.1048L12.3245 14.7238C12.7431 15.1429 12.8478 15.7714 12.8478 16.2952V27.819C12.9524 28.4476 12.8478 29.181 12.5338 29.8095L9.70801 33.6857V33.7905H17.2434V33.6857L14.4177 29.9143C14.1037 29.2857 13.999 28.6571 14.1037 27.9238V17.4476C14.2083 17.6571 14.313 17.6571 14.4177 18.0762L21.5345 34H21.6391L28.5466 16.7143C28.4419 17.3429 28.4419 18.0762 28.4419 18.6V30.9619C28.4419 31.2762 28.3373 31.4857 28.128 31.6952L26.0348 33.6857V33.7905H36.2913V33.6857Z" fill="white"/>
</svg>
