<svg width="46" height="46" viewBox="0 0 46 46" fill="none" xmlns="http://www.w3.org/2000/svg">
<rect x="0.5" y="0.5" width="45" height="45" rx="22.5" fill="#1D1D1D" stroke="white"/>
<path d="M36.2917 33.6857L34.3032 31.6952C34.0939 31.5905 33.9892 31.2762 33.9892 31.0667V15.1429C33.9892 14.9333 34.0939 14.619 34.3032 14.4095L36.2917 12.1048V12H29.1749L23.8373 25.5143L17.7671 12H10.441V12.1048L12.3248 14.7238C12.7435 15.1429 12.8481 15.7714 12.8481 16.2952V27.819C12.9528 28.4476 12.8481 29.181 12.5342 29.8095L9.70837 33.6857V33.7905H17.2438V33.6857L14.418 29.9143C14.104 29.2857 13.9994 28.6571 14.104 27.9238V17.4476C14.2087 17.6571 14.3134 17.6571 14.418 18.0762L21.5348 34H21.6395L28.547 16.7143C28.4423 17.3429 28.4423 18.0762 28.4423 18.6V30.9619C28.4423 31.2762 28.3376 31.4857 28.1283 31.6952L26.0351 33.6857V33.7905H36.2917V33.6857Z" fill="white"/>
</svg>
