<svg width="61" height="60" viewBox="0 0 61 60" fill="none" xmlns="http://www.w3.org/2000/svg">
<path fill-rule="evenodd" clip-rule="evenodd" d="M19.3421 24.8389L30.9266 47.5131L11.4551 24.8389H19.3421Z" fill="#EA6C00"/>
<path fill-rule="evenodd" clip-rule="evenodd" d="M42.5144 24.8389L30.9298 47.5131L50.4014 24.8389H42.5144Z" fill="#EA6C00"/>
<path fill-rule="evenodd" clip-rule="evenodd" d="M19.3408 24.8389H42.51L30.9254 47.5131L19.3408 24.8389Z" fill="#FDAD00"/>
<path fill-rule="evenodd" clip-rule="evenodd" d="M30.9254 12.2727L19.9506 13.4328L19.3408 24.8389L30.9254 12.2727Z" fill="#FDD231"/>
<path fill-rule="evenodd" clip-rule="evenodd" d="M30.9252 12.2727L41.9 13.4328L42.5098 24.8389L30.9252 12.2727Z" fill="#FDD231"/>
<path fill-rule="evenodd" clip-rule="evenodd" d="M50.4014 24.8388L41.9048 13.4327L42.5146 24.8388H50.4014Z" fill="#FDAD00"/>
<path fill-rule="evenodd" clip-rule="evenodd" d="M11.4551 24.8388L19.9518 13.4327L19.3421 24.8388H11.4551Z" fill="#FDAD00"/>
<path fill-rule="evenodd" clip-rule="evenodd" d="M30.9254 12.2727L19.3408 24.8389H42.51L30.9254 12.2727Z" fill="#FEEEB7"/>
</svg>
