<svg width="434" height="300" viewBox="0 0 434 300" fill="none" xmlns="http://www.w3.org/2000/svg">
<rect width="434" height="300" fill="#FF8300"/>
<path d="M134.671 245.843C137.913 245.843 140.12 244.134 140.657 241.224H138.479C138.04 242.923 136.643 243.929 134.681 243.929C132.093 243.929 130.452 241.849 130.452 238.558C130.452 235.296 132.112 233.196 134.671 233.196C136.585 233.196 138.089 234.378 138.479 236.185H140.647C140.276 233.245 137.864 231.282 134.671 231.282C130.735 231.282 128.216 234.095 128.216 238.558C128.216 243.05 130.716 245.843 134.671 245.843ZM147.79 245.804C150.729 245.804 152.663 243.782 152.663 240.472C152.663 237.171 150.72 235.15 147.79 235.15C144.86 235.15 142.917 237.171 142.917 240.472C142.917 243.782 144.851 245.804 147.79 245.804ZM147.79 244.066C146.14 244.066 145.065 242.757 145.065 240.472C145.065 238.196 146.14 236.888 147.79 236.888C149.44 236.888 150.515 238.196 150.515 240.472C150.515 242.757 149.45 244.066 147.79 244.066ZM155.294 245.609H157.403V239.622C157.403 238.03 158.36 236.976 159.845 236.976C161.309 236.976 162.032 237.825 162.032 239.368V245.609H164.151V238.958C164.151 236.605 162.852 235.159 160.587 235.159C159.005 235.159 157.911 235.882 157.354 237.054H157.306V235.335H155.294V245.609ZM167.007 238.245C167.007 239.681 167.944 240.648 169.8 241.097L171.636 241.546C172.71 241.819 173.101 242.181 173.101 242.835C173.101 243.665 172.319 244.193 171.05 244.193C169.761 244.193 168.999 243.646 168.833 242.659H166.743C166.909 244.544 168.52 245.804 170.952 245.804C173.472 245.804 175.22 244.515 175.22 242.64C175.22 241.126 174.438 240.345 172.368 239.847L170.64 239.446C169.575 239.183 169.067 238.753 169.067 238.118C169.067 237.308 169.829 236.751 170.972 236.751C172.153 236.751 172.905 237.327 173.003 238.255H174.985C174.917 236.429 173.315 235.15 171.03 235.15C168.628 235.15 167.007 236.409 167.007 238.245ZM186.669 235.335H184.559V241.321C184.559 242.923 183.642 243.978 182.118 243.978C180.663 243.978 179.921 243.138 179.921 241.575V235.335H177.811V241.985C177.811 244.339 179.179 245.794 181.415 245.794C182.987 245.794 184.032 245.101 184.599 243.87H184.647V245.609H186.669V235.335ZM189.837 245.609H191.946V231.517H189.837V245.609ZM195.729 232.903V235.335H194.235V237.005H195.729V242.903C195.729 244.886 196.54 245.677 198.62 245.677C199.089 245.677 199.558 245.638 199.792 245.579V243.909C199.655 243.939 199.313 243.958 199.099 243.958C198.239 243.958 197.849 243.558 197.849 242.669V237.005H199.802V235.335H197.849V232.903H195.729ZM206.7 245.804C209.64 245.804 211.573 243.782 211.573 240.472C211.573 237.171 209.63 235.15 206.7 235.15C203.77 235.15 201.827 237.171 201.827 240.472C201.827 243.782 203.761 245.804 206.7 245.804ZM206.7 244.066C205.05 244.066 203.976 242.757 203.976 240.472C203.976 238.196 205.05 236.888 206.7 236.888C208.351 236.888 209.425 238.196 209.425 240.472C209.425 242.757 208.36 244.066 206.7 244.066ZM214.204 245.609H216.313V239.456C216.313 238.001 217.153 237.093 218.511 237.093C218.921 237.093 219.292 237.142 219.458 237.21V235.247C219.302 235.218 219.038 235.169 218.735 235.169C217.524 235.169 216.606 235.882 216.265 237.083H216.216V235.335H214.204V245.609ZM221.835 245.609H223.944V235.335H221.835V245.609ZM223.778 233.87L226.22 230.911H224.101L222.011 233.87H223.778ZM230.696 244.114C229.563 244.114 228.821 243.528 228.821 242.63C228.821 241.751 229.534 241.194 230.794 241.107L233.323 240.95V241.761C233.323 243.099 232.171 244.114 230.696 244.114ZM230.11 245.784C231.458 245.784 232.757 245.062 233.352 243.919H233.401V245.609H235.423V238.528C235.423 236.468 233.831 235.15 231.341 235.15C228.802 235.15 227.22 236.517 227.102 238.372H229.095C229.28 237.454 230.042 236.868 231.263 236.868C232.552 236.868 233.323 237.552 233.323 238.694V239.485L230.511 239.651C228.069 239.788 226.692 240.892 226.692 242.689C226.692 244.534 228.099 245.784 230.11 245.784ZM247.833 236.849C249.308 236.849 250.304 237.952 250.352 239.525H245.216C245.323 237.972 246.358 236.849 247.833 236.849ZM250.343 242.591C250.059 243.489 249.171 244.095 247.97 244.095C246.28 244.095 245.206 242.913 245.206 241.126V240.999H252.462V240.276C252.462 237.161 250.684 235.15 247.833 235.15C244.933 235.15 243.077 237.298 243.077 240.521C243.077 243.763 244.903 245.804 247.921 245.804C250.274 245.804 252.052 244.466 252.345 242.591H250.343ZM255.102 245.609H257.212V239.622C257.212 238.03 258.169 236.976 259.653 236.976C261.118 236.976 261.841 237.825 261.841 239.368V245.609H263.96V238.958C263.96 236.605 262.661 235.159 260.395 235.159C258.813 235.159 257.72 235.882 257.163 237.054H257.114V235.335H255.102V245.609ZM274.505 245.609V231.517H272.317V245.609H274.505ZM283.972 240.97H288.073V239.066H283.972V234.749H282.038V239.066H277.936V240.97H282.038V245.374H283.972V240.97ZM291.505 231.517V245.609H296.476C300.675 245.609 303.145 242.991 303.145 238.538C303.145 234.095 300.665 231.517 296.476 231.517H291.505ZM293.692 233.401H296.27C299.249 233.401 300.909 235.237 300.909 238.558C300.909 241.888 299.259 243.714 296.27 243.714H293.692V233.401Z" fill="white"/>
<g clip-path="url(#clip0_1183_459)">
<path d="M321.241 28H112V226.251H321.241V28Z" fill="#FF8300"/>
<mask id="path-4-outside-1_1183_459" maskUnits="userSpaceOnUse" x="171.797" y="39.5635" width="137" height="114" fill="black">
<rect fill="white" x="171.797" y="39.5635" width="137" height="114"/>
<path d="M213.849 64.6874L181.797 96.7396L215.376 130.319L218.613 133.299L218.399 133.107C230.735 144.3 248.593 149.149 264.806 144.588C292.757 136.738 309.578 103.223 297.456 76.436C285.44 49.8843 249.383 39.065 224.882 55.0109"/>
</mask>
<path d="M181.797 96.7396L176.847 91.7898L171.897 96.7396L176.847 101.689L181.797 96.7396ZM215.376 130.319L210.427 135.269L210.529 135.371L210.635 135.469L215.376 130.319ZM218.613 133.299L213.93 138.502L223.354 128.149L218.613 133.299ZM218.399 133.107L223.082 127.904L213.695 138.291L218.399 133.107ZM264.806 144.588L262.913 137.849L262.91 137.85L264.806 144.588ZM297.456 76.436L291.079 79.322L291.079 79.3221L297.456 76.436ZM208.899 59.7377L176.847 91.7898L186.747 101.689L218.799 69.6372L208.899 59.7377ZM176.847 101.689L210.427 135.269L220.326 125.369L186.747 91.7898L176.847 101.689ZM210.635 135.469L213.871 138.448L223.354 128.149L220.118 125.17L210.635 135.469ZM223.295 128.096L223.082 127.904L213.716 138.31L213.93 138.502L223.295 128.096ZM213.695 138.291C227.676 150.976 247.991 156.59 266.701 151.327L262.91 137.85C249.195 141.708 233.794 137.623 223.103 127.923L213.695 138.291ZM266.699 151.327C298.542 142.384 317.822 104.46 303.833 73.5499L291.079 79.3221C301.335 101.986 286.972 131.092 262.913 137.849L266.699 151.327ZM303.833 73.55C290.074 43.145 249.208 30.8269 221.064 49.144L228.7 60.8778C249.558 47.303 280.807 56.6236 291.079 79.322L303.833 73.55Z" fill="white" mask="url(#path-4-outside-1_1183_459)"/>
<mask id="path-6-outside-2_1183_459" maskUnits="userSpaceOnUse" x="123.732" y="39.5822" width="138" height="114" fill="black">
<rect fill="white" x="123.732" y="39.5822" width="138" height="114"/>
<path d="M219.328 129.198L251.38 97.1455L217.801 63.566L214.565 60.5862L214.778 60.7784C202.442 49.5746 184.585 44.7256 168.372 49.2862C140.421 57.1364 123.599 90.6517 135.721 117.438C147.737 143.99 183.794 154.809 208.295 138.863"/>
</mask>
<path d="M251.38 97.1455L256.33 102.095L261.28 97.1455L256.33 92.1957L251.38 97.1455ZM217.801 63.566L222.751 58.6163L222.649 58.5143L222.543 58.4165L217.801 63.566ZM214.565 60.5862L219.247 55.3831L209.823 65.7357L214.565 60.5862ZM214.778 60.7784L210.096 65.9815L219.485 55.5966L214.778 60.7784ZM168.372 49.2862L170.264 56.0255L170.267 56.0247L168.372 49.2862ZM135.721 117.438L142.099 114.552L142.099 114.552L135.721 117.438ZM224.278 134.147L256.33 102.095L246.431 92.1957L214.378 124.248L224.278 134.147ZM256.33 92.1957L222.751 58.6163L212.851 68.5158L246.431 102.095L256.33 92.1957ZM222.543 58.4165L219.306 55.4367L209.823 65.7357L213.059 68.7155L222.543 58.4165ZM209.882 65.7893L210.096 65.9815L219.461 55.5753L219.247 55.3831L209.882 65.7893ZM219.485 55.5966C205.503 42.8982 185.187 37.2845 166.476 42.5477L170.267 56.0247C183.982 52.1668 199.382 56.251 210.072 65.9602L219.485 55.5966ZM166.479 42.547C134.636 51.4903 115.356 89.4146 129.344 120.324L142.099 114.552C131.842 91.8889 146.206 62.7825 170.264 56.0255L166.479 42.547ZM129.344 120.324C143.103 150.729 183.969 163.048 212.114 144.73L204.477 132.997C183.619 146.571 152.371 137.251 142.099 114.552L129.344 120.324Z" fill="white" mask="url(#path-6-outside-2_1183_459)"/>
<path d="M148.431 171.247V190.536H145.985V187.225C144.949 188.485 143.774 189.446 142.482 190.076C141.19 190.707 139.769 191.038 138.231 191.038C135.497 191.038 133.169 190.044 131.236 188.068C129.302 186.093 128.341 183.679 128.341 180.838C128.341 178.061 129.313 175.679 131.268 173.714C133.222 171.738 135.561 170.755 138.306 170.755C139.887 170.755 141.318 171.097 142.61 171.77C143.892 172.443 145.013 173.458 145.985 174.803V171.257H148.431V171.247ZM138.509 173.137C137.131 173.137 135.85 173.479 134.685 174.152C133.521 174.835 132.581 175.786 131.898 177.014C131.204 178.242 130.862 179.545 130.862 180.913C130.862 182.269 131.214 183.572 131.908 184.811C132.603 186.05 133.543 187.011 134.717 187.705C135.892 188.4 137.153 188.741 138.498 188.741C139.855 188.741 141.147 188.4 142.354 187.716C143.561 187.032 144.501 186.103 145.163 184.939C145.814 183.775 146.146 182.451 146.146 180.987C146.146 178.755 145.409 176.886 143.945 175.391C142.471 173.895 140.656 173.137 138.509 173.137Z" fill="white"/>
<path d="M159.667 190.536V163.792H162.145V174.558C163.181 173.276 164.345 172.325 165.637 171.695C166.93 171.065 168.34 170.745 169.867 170.745C172.59 170.745 174.919 171.738 176.852 173.714C178.785 175.69 179.746 178.093 179.746 180.923C179.746 183.711 178.774 186.093 176.82 188.068C174.876 190.044 172.526 191.027 169.792 191.027C168.222 191.027 166.802 190.685 165.52 190.012C164.249 189.339 163.117 188.325 162.134 186.979V190.525H159.667V190.536ZM169.6 188.635C170.978 188.635 172.249 188.293 173.423 187.62C174.588 186.936 175.517 185.986 176.211 184.758C176.905 183.529 177.247 182.226 177.247 180.859C177.247 179.492 176.895 178.178 176.2 176.939C175.506 175.7 174.566 174.729 173.391 174.045C172.217 173.361 170.967 173.009 169.632 173.009C168.275 173.009 166.983 173.351 165.766 174.045C164.548 174.739 163.608 175.668 162.957 176.833C162.305 178.007 161.974 179.321 161.974 180.784C161.974 183.017 162.711 184.886 164.174 186.392C165.648 187.887 167.453 188.635 169.6 188.635Z" fill="white"/>
<path d="M208.99 171.247V190.536H206.544V187.225C205.508 188.485 204.333 189.446 203.04 190.076C201.748 190.707 200.328 191.038 198.79 191.038C196.055 191.038 193.727 190.044 191.794 188.068C189.861 186.093 188.9 183.679 188.9 180.838C188.9 178.061 189.871 175.679 191.826 173.714C193.781 171.738 196.12 170.755 198.864 170.755C200.445 170.755 201.876 171.097 203.169 171.77C204.45 172.443 205.572 173.458 206.544 174.803V171.257H208.99V171.247ZM199.067 173.137C197.69 173.137 196.408 173.479 195.244 174.152C194.08 174.835 193.14 175.786 192.456 177.014C191.762 178.242 191.42 179.545 191.42 180.913C191.42 182.269 191.773 183.572 192.467 184.811C193.161 186.05 194.101 187.011 195.276 187.705C196.451 188.4 197.711 188.741 199.057 188.741C200.413 188.741 201.705 188.4 202.912 187.716C204.119 187.032 205.059 186.103 205.721 184.939C206.373 183.775 206.704 182.451 206.704 180.987C206.704 178.755 205.967 176.886 204.504 175.391C203.03 173.895 201.214 173.137 199.067 173.137Z" fill="white"/>
<path d="M220.065 171.247H222.543V174.707C223.536 173.383 224.636 172.39 225.843 171.738C227.05 171.087 228.364 170.755 229.784 170.755C231.226 170.755 232.508 171.119 233.619 171.856C234.74 172.592 235.563 173.575 236.097 174.814C236.631 176.053 236.898 177.986 236.898 180.614V190.546H234.42V181.34C234.42 179.118 234.324 177.634 234.142 176.886C233.854 175.604 233.298 174.654 232.487 174.002C231.675 173.361 230.607 173.041 229.293 173.041C227.787 173.041 226.441 173.532 225.256 174.526C224.07 175.519 223.28 176.747 222.906 178.21C222.671 179.172 222.554 180.913 222.554 183.455V190.525H220.076V171.247H220.065Z" fill="white"/>
<path d="M249.864 164.08H252.342V171.247H256.283V173.394H252.342V190.536H249.864V173.394H246.478V171.247H249.864V164.08Z" fill="white"/>
<path d="M274.632 170.745C277.601 170.745 280.068 171.823 282.023 173.97C283.796 175.935 284.693 178.253 284.693 180.934C284.693 183.625 283.753 185.986 281.873 188.004C279.993 190.023 277.58 191.027 274.632 191.027C271.673 191.027 269.249 190.023 267.38 188.004C265.5 185.986 264.56 183.636 264.56 180.934C264.56 178.264 265.447 175.946 267.23 173.981C269.185 171.823 271.652 170.745 274.632 170.745ZM274.621 173.18C272.56 173.18 270.787 173.938 269.302 175.466C267.818 176.993 267.081 178.83 267.081 180.998C267.081 182.397 267.422 183.69 268.095 184.896C268.768 186.103 269.687 187.032 270.84 187.684C271.994 188.336 273.254 188.667 274.632 188.667C276.01 188.667 277.27 188.336 278.423 187.684C279.577 187.032 280.485 186.093 281.168 184.896C281.841 183.69 282.183 182.386 282.183 180.998C282.183 178.83 281.435 176.993 279.951 175.466C278.445 173.938 276.682 173.18 274.621 173.18Z" fill="white"/>
<path d="M304.473 173.351L302.882 174.996C301.557 173.703 300.254 173.062 298.983 173.062C298.182 173.062 297.488 173.329 296.911 173.863C296.335 174.397 296.046 175.017 296.046 175.722C296.046 176.352 296.281 176.95 296.762 177.516C297.232 178.093 298.236 178.776 299.742 179.556C301.589 180.517 302.85 181.436 303.512 182.322C304.163 183.22 304.494 184.234 304.494 185.356C304.494 186.936 303.939 188.282 302.828 189.382C301.718 190.482 300.329 191.027 298.652 191.027C297.541 191.027 296.473 190.781 295.469 190.301C294.455 189.82 293.622 189.147 292.96 188.293L294.519 186.52C295.79 187.951 297.136 188.667 298.556 188.667C299.549 188.667 300.393 188.346 301.098 187.705C301.792 187.065 302.145 186.317 302.145 185.452C302.145 184.747 301.91 184.106 301.451 183.551C300.991 183.006 299.945 182.322 298.321 181.489C296.58 180.592 295.395 179.706 294.765 178.83C294.134 177.954 293.825 176.961 293.825 175.829C293.825 174.365 294.327 173.148 295.331 172.176C296.335 171.204 297.595 170.723 299.122 170.723C300.884 170.745 302.668 171.621 304.473 173.351Z" fill="white"/>
<path d="M137.601 203.705L136.672 204.282C135.871 203.224 134.781 202.69 133.393 202.69C132.282 202.69 131.364 203.043 130.637 203.758C129.911 204.474 129.537 205.328 129.537 206.354C129.537 207.016 129.708 207.635 130.039 208.223C130.37 208.81 130.84 209.259 131.428 209.579C132.015 209.899 132.667 210.06 133.404 210.06C134.739 210.06 135.828 209.526 136.672 208.468L137.601 209.077C137.163 209.729 136.586 210.241 135.85 210.594C135.113 210.957 134.29 211.138 133.35 211.138C131.919 211.138 130.723 210.679 129.783 209.771C128.832 208.863 128.363 207.753 128.363 206.439C128.363 205.563 128.587 204.741 129.025 203.993C129.463 203.235 130.071 202.647 130.851 202.231C131.62 201.804 132.485 201.601 133.446 201.601C134.045 201.601 134.632 201.697 135.187 201.878C135.743 202.06 136.223 202.306 136.608 202.594C137.003 202.882 137.334 203.256 137.601 203.705Z" fill="white"/>
<path d="M152.629 201.59C154.028 201.59 155.181 202.092 156.11 203.107C156.943 204.025 157.36 205.125 157.36 206.386C157.36 207.657 156.922 208.767 156.036 209.707C155.149 210.658 154.017 211.128 152.629 211.128C151.24 211.128 150.097 210.658 149.211 209.707C148.324 208.757 147.886 207.646 147.886 206.386C147.886 205.125 148.303 204.036 149.136 203.117C150.055 202.103 151.219 201.59 152.629 201.59ZM152.618 202.733C151.646 202.733 150.813 203.096 150.119 203.812C149.424 204.527 149.072 205.392 149.072 206.418C149.072 207.069 149.232 207.689 149.553 208.255C149.873 208.821 150.3 209.259 150.845 209.568C151.39 209.878 151.977 210.028 152.629 210.028C153.28 210.028 153.868 209.878 154.412 209.568C154.957 209.259 155.384 208.821 155.705 208.255C156.025 207.689 156.185 207.08 156.185 206.418C156.185 205.403 155.833 204.527 155.138 203.812C154.423 203.096 153.59 202.733 152.618 202.733Z" fill="white"/>
<path d="M167.998 201.825H169.162V203.448C169.632 202.829 170.145 202.359 170.711 202.049C171.277 201.74 171.896 201.59 172.558 201.59C173.242 201.59 173.84 201.761 174.363 202.103C174.887 202.444 175.282 202.914 175.528 203.491C175.773 204.068 175.901 204.986 175.901 206.215V210.893H174.737V206.567C174.737 205.52 174.694 204.826 174.609 204.474C174.47 203.876 174.214 203.416 173.829 203.117C173.445 202.818 172.943 202.658 172.323 202.658C171.618 202.658 170.988 202.893 170.422 203.363C169.856 203.833 169.493 204.41 169.311 205.093C169.205 205.542 169.141 206.364 169.141 207.56V210.893H167.976V201.825H167.998Z" fill="white"/>
<path d="M191.474 202.818L190.726 203.598C190.106 202.989 189.487 202.69 188.889 202.69C188.515 202.69 188.184 202.818 187.917 203.064C187.65 203.31 187.511 203.609 187.511 203.94C187.511 204.239 187.618 204.516 187.842 204.784C188.066 205.061 188.536 205.371 189.252 205.745C190.117 206.193 190.715 206.631 191.025 207.048C191.335 207.475 191.484 207.945 191.484 208.479C191.484 209.227 191.217 209.857 190.694 210.369C190.17 210.882 189.519 211.149 188.729 211.149C188.205 211.149 187.703 211.032 187.233 210.807C186.753 210.583 186.358 210.263 186.048 209.867L186.785 209.034C187.383 209.707 188.013 210.049 188.686 210.049C189.156 210.049 189.551 209.899 189.882 209.6C190.213 209.301 190.373 208.949 190.373 208.543C190.373 208.212 190.267 207.913 190.042 207.646C189.829 207.39 189.337 207.069 188.568 206.674C187.746 206.247 187.191 205.83 186.892 205.424C186.593 205.008 186.443 204.538 186.443 204.015C186.443 203.32 186.678 202.754 187.148 202.295C187.618 201.836 188.216 201.611 188.932 201.611C189.786 201.59 190.619 201.996 191.474 202.818Z" fill="white"/>
<path d="M201.876 201.825H203.04V206.065C203.04 207.101 203.094 207.817 203.211 208.201C203.382 208.757 203.703 209.195 204.173 209.515C204.643 209.835 205.209 209.996 205.86 209.996C206.512 209.996 207.067 209.835 207.516 209.526C207.964 209.216 208.285 208.799 208.455 208.287C208.573 207.934 208.626 207.197 208.626 206.054V201.814H209.823V206.268C209.823 207.518 209.673 208.458 209.385 209.098C209.096 209.739 208.648 210.231 208.071 210.583C207.484 210.946 206.747 211.117 205.86 211.117C204.974 211.117 204.237 210.935 203.649 210.583C203.062 210.231 202.613 209.729 202.325 209.077C202.037 208.426 201.887 207.464 201.887 206.183V201.825H201.876Z" fill="white"/>
<path d="M220.717 198.322H221.881V210.903H220.717V198.322Z" fill="white"/>
<path d="M233.811 198.45H234.975V201.825H236.823V202.84H234.975V210.903H233.811V202.84H232.22V201.825H233.811V198.45Z" fill="white"/>
<path d="M251.37 201.59C252.769 201.59 253.922 202.092 254.852 203.107C255.685 204.025 256.101 205.125 256.101 206.386C256.101 207.657 255.663 208.767 254.777 209.707C253.89 210.658 252.758 211.128 251.37 211.128C249.981 211.128 248.838 210.658 247.952 209.707C247.065 208.757 246.628 207.646 246.628 206.386C246.628 205.125 247.044 204.036 247.877 203.117C248.796 202.103 249.96 201.59 251.37 201.59ZM251.359 202.733C250.387 202.733 249.554 203.096 248.86 203.812C248.166 204.527 247.813 205.392 247.813 206.418C247.813 207.069 247.973 207.689 248.294 208.255C248.614 208.821 249.041 209.259 249.586 209.568C250.131 209.878 250.718 210.028 251.37 210.028C252.021 210.028 252.609 209.878 253.153 209.568C253.698 209.259 254.125 208.821 254.446 208.255C254.766 207.689 254.926 207.08 254.926 206.418C254.926 205.403 254.574 204.527 253.88 203.812C253.164 203.096 252.331 202.733 251.359 202.733Z" fill="white"/>
<path d="M266.301 201.825H267.497V203.149C267.85 202.626 268.223 202.231 268.619 201.975C269.014 201.718 269.42 201.59 269.858 201.59C270.178 201.59 270.52 201.697 270.894 201.9L270.285 202.882C270.039 202.776 269.836 202.722 269.665 202.722C269.281 202.722 268.896 202.882 268.544 203.203C268.181 203.523 267.903 204.014 267.722 204.687C267.572 205.2 267.508 206.247 267.508 207.827V210.903H266.312V201.825H266.301Z" fill="white"/>
<path d="M287.94 207.892L288.922 208.404C288.602 209.034 288.228 209.547 287.801 209.942C287.374 210.327 286.904 210.626 286.37 210.829C285.836 211.032 285.238 211.138 284.575 211.138C283.091 211.138 281.937 210.658 281.104 209.686C280.271 208.714 279.855 207.614 279.855 206.396C279.855 205.243 280.207 204.217 280.912 203.32C281.809 202.177 283.005 201.601 284.511 201.601C286.06 201.601 287.299 202.188 288.217 203.363C288.88 204.196 289.211 205.232 289.221 206.471H281.051C281.072 207.528 281.414 208.394 282.065 209.066C282.717 209.739 283.518 210.081 284.479 210.081C284.938 210.081 285.387 209.996 285.825 209.835C286.263 209.675 286.637 209.462 286.936 209.195C287.256 208.917 287.587 208.479 287.94 207.892ZM287.94 205.446C287.779 204.826 287.555 204.324 287.256 203.95C286.957 203.577 286.562 203.278 286.071 203.053C285.579 202.829 285.067 202.711 284.522 202.711C283.635 202.711 282.866 203 282.226 203.566C281.756 203.982 281.403 204.613 281.168 205.446H287.94Z" fill="white"/>
<path d="M304.452 202.818L303.704 203.598C303.085 202.989 302.465 202.69 301.878 202.69C301.493 202.69 301.173 202.818 300.906 203.064C300.639 203.31 300.5 203.609 300.5 203.94C300.5 204.239 300.607 204.516 300.831 204.784C301.055 205.061 301.525 205.371 302.241 205.745C303.106 206.193 303.704 206.631 304.014 207.048C304.324 207.475 304.473 207.945 304.473 208.479C304.473 209.227 304.206 209.857 303.683 210.369C303.159 210.882 302.508 211.149 301.718 211.149C301.194 211.149 300.692 211.032 300.222 210.807C299.742 210.583 299.346 210.263 299.037 209.867L299.774 209.034C300.372 209.707 301.002 210.049 301.675 210.049C302.145 210.049 302.54 209.899 302.871 209.6C303.202 209.301 303.362 208.949 303.362 208.543C303.362 208.212 303.255 207.913 303.031 207.646C302.818 207.39 302.326 207.069 301.557 206.674C300.735 206.247 300.18 205.83 299.88 205.424C299.581 205.008 299.432 204.538 299.432 204.015C299.432 203.32 299.667 202.754 300.137 202.295C300.607 201.836 301.205 201.611 301.92 201.611C302.764 201.59 303.597 201.996 304.452 202.818Z" fill="white"/>
</g>
<defs>
<clipPath id="clip0_1183_459">
<rect width="209.241" height="198.251" fill="white" transform="translate(112 28)"/>
</clipPath>
</defs>
</svg>
