<svg width="60" height="60" viewBox="0 0 60 60" fill="none" xmlns="http://www.w3.org/2000/svg">
<path d="M23.6356 47.7272C26.8974 47.7272 29.5447 45.0799 29.5447 41.818V35.9088H23.6356C20.3738 35.9088 17.7266 38.5561 17.7266 41.818C17.7266 45.0799 20.3738 47.7272 23.6356 47.7272Z" fill="#0ACF83"/>
<path d="M17.7266 29.9998C17.7266 26.7381 20.3738 24.0908 23.6356 24.0908H29.5447V35.9088H23.6356C20.3738 35.9088 17.7266 33.2616 17.7266 29.9998Z" fill="#A259FF"/>
<path d="M17.7266 18.1818C17.7266 14.92 20.3738 12.2727 23.6356 12.2727H29.5447V24.0908H23.6356C20.3738 24.0908 17.7266 21.4436 17.7266 18.1818Z" fill="#F24E1E"/>
<path d="M29.5469 12.2726H35.456C38.7178 12.2726 41.3651 14.9198 41.3651 18.1816C41.3651 21.4434 38.7178 24.0907 35.456 24.0907H29.5469V12.2726Z" fill="#FF7262"/>
<path d="M41.3651 29.9998C41.3651 33.2616 38.7178 35.9088 35.456 35.9088C32.1942 35.9088 29.5469 33.2616 29.5469 29.9998C29.5469 26.7381 32.1942 24.0908 35.456 24.0908C38.7178 24.0908 41.3651 26.7381 41.3651 29.9998Z" fill="#1ABCFE"/>
</svg>
