<svg width="44" height="44" viewBox="0 0 44 44" fill="none" xmlns="http://www.w3.org/2000/svg">
<path fill-rule="evenodd" clip-rule="evenodd" d="M13.7838 18.2152L22.2791 34.843L8 18.2152H13.7838Z" fill="#EA6C00"/>
<path fill-rule="evenodd" clip-rule="evenodd" d="M30.7768 18.2152L22.2814 34.843L36.5605 18.2152H30.7768Z" fill="#EA6C00"/>
<path fill-rule="evenodd" clip-rule="evenodd" d="M13.7822 18.2152H30.773L22.2776 34.843L13.7822 18.2152Z" fill="#FDAD00"/>
<path fill-rule="evenodd" clip-rule="evenodd" d="M22.2776 9L14.2294 9.85074L13.7822 18.2152L22.2776 9Z" fill="#FDD231"/>
<path fill-rule="evenodd" clip-rule="evenodd" d="M22.2781 9L30.3263 9.85074L30.7734 18.2152L22.2781 9Z" fill="#FDD231"/>
<path fill-rule="evenodd" clip-rule="evenodd" d="M36.5605 18.2151L30.3298 9.85071L30.7769 18.2151H36.5605Z" fill="#FDAD00"/>
<path fill-rule="evenodd" clip-rule="evenodd" d="M8 18.2151L14.2309 9.85071L13.7838 18.2151H8Z" fill="#FDAD00"/>
<path fill-rule="evenodd" clip-rule="evenodd" d="M22.2776 9L13.7822 18.2152H30.773L22.2776 9Z" fill="#FEEEB7"/>
</svg>
